<?xml version="1.0" encoding="UTF-8"?>
<svg id="Laag_1" xmlns="http://www.w3.org/2000/svg" version="1.1" viewBox="0 0 1920 588.6">
  <!-- Generator: Adobe IllUstrator 29.5.1, SVG Export PlUg-In . SVG Version: 2.1.0 BUild 141)  -->
  <defs>
    <style>
      .st0 {
        fill: #061616;
      }

      .st1 {
        fill: #02cebc;
      }
    </style>
  </defs>
  <g>
    <rect class="st0" x="78.9" y="404.1" width="9.2" height="113.7"/>
    <path class="st0" d="M166.4,438.7c-4.6-2.5-9.7-3.8-15.3-3.8s-11.8,1.6-16.6,4.7c-3.2,2.1-5.7,4.8-7.6,7.9v-10.8h-9.2v81h9.2v-48.8c0-4.9.9-9.2,2.7-13,1.8-3.8,4.5-6.7,7.9-8.8,3.5-2.1,7.5-3.2,12.1-3.2s8.3.9,11.7,2.8c3.4,1.9,6.1,4.6,8,8.1,1.9,3.5,2.9,7.7,2.9,12.6v50.3h9.2v-52.9c0-5.8-1.4-11-4.1-15.5-2.7-4.5-6.4-8.1-11-10.6Z"/>
    <polygon class="st0" points="234.9 505.2 208.3 436.8 198.1 436.8 230.1 517.8 239.6 517.8 272.1 436.8 261.6 436.8 234.9 505.2"/>
    <path class="st0" d="M352.9,446.5c-3.3-3.6-7.2-6.4-11.7-8.5-4.5-2-9.6-3-15.2-3s-13.9,1.8-19.8,5.5c-5.9,3.7-10.6,8.7-14,15-3.5,6.4-5.2,13.6-5.2,21.6s1.8,15.3,5.3,21.7c3.6,6.5,8.4,11.5,14.5,15.3,6.1,3.7,13,5.6,20.6,5.6s10-.9,14.4-2.6c4.4-1.7,8.3-4.1,11.7-7.1,3.4-3,6-6.4,7.8-10.1l-7.8-4.1c-2.7,4.7-6.3,8.4-10.7,11.2-4.4,2.8-9.5,4.2-15.4,4.2s-11.1-1.5-15.9-4.3c-4.8-2.9-8.5-6.9-11.3-12-2.3-4.3-3.6-9.2-3.8-14.6h66.2c.2-1.2.4-2.4.5-3.5,0-1.1.2-2.2.2-3.2,0-5.1-.9-9.9-2.7-14.6-1.8-4.6-4.3-8.7-7.6-12.4ZM300,459.7c2.6-5,6.3-9,10.8-11.9,4.6-2.9,9.6-4.3,15.1-4.3s10.4,1.4,14.7,4.2c4.3,2.8,7.7,6.6,10,11.3,1.9,3.9,2.8,8.1,2.8,12.7h-56.9c.4-4.4,1.6-8.4,3.5-12Z"/>
    <path class="st0" d="M424.4,474l-13.6-4c-2.1-.6-4.2-1.4-6.2-2.5s-3.6-2.4-4.8-4.1c-1.2-1.7-1.8-3.8-1.8-6.3,0-4,1.5-7.2,4.6-9.8,3.1-2.6,7-3.9,11.9-3.9s9,1.3,12.8,3.9c3.9,2.6,6.9,6.2,9,10.8l8.2-3.8c-2.2-5.9-6.1-10.6-11.6-14-5.5-3.5-11.6-5.2-18.3-5.2s-9.2.9-13.1,2.8c-4,1.9-7.1,4.5-9.5,7.9-2.3,3.4-3.5,7.4-3.5,12s1.7,9.5,5,13.3c3.3,3.8,8.5,6.6,15.5,8.5l12.5,3.5c2.4.6,4.7,1.5,6.9,2.7,2.1,1.2,3.9,2.7,5.3,4.5,1.4,1.8,2.1,4.1,2.1,6.7,0,4.3-1.8,7.7-5.4,10.3-3.6,2.6-8.1,3.9-13.4,3.9s-9.9-1.5-14.2-4.3-7.7-6.8-10.2-11.8l-7.9,3.7c2.6,6.5,6.8,11.6,12.5,15.4,5.7,3.8,12.3,5.6,19.8,5.6s10.2-1,14.5-3c4.3-2,7.6-4.7,10.1-8.2,2.4-3.5,3.7-7.4,3.7-11.7s-1.8-10.1-5.4-14c-3.6-4-8.7-6.9-15.3-8.7Z"/>
    <path class="st0" d="M502.5,510c-3.7,0-6.5-.7-8.4-2-1.9-1.3-3.2-3.1-3.9-5.2-.7-2.1-1-4.3-1-6.6v-50.8h17.7v-8.7h-17.7v-18.9h-9.2v8.7c0,3.2-.8,5.6-2.4,7.5-1.6,1.8-4,2.7-7,2.7h-5.8v8.7h15.3v50.8c0,7.3,1.8,12.9,5.5,16.7,3.7,3.8,8.8,5.7,15.6,5.7s1.9,0,3.4-.2c1.4-.2,2.7-.4,3.8-.7v-8.2c-.7.1-1.7.2-2.8.3-1.2.1-2.2.2-3,.2Z"/>
    <rect class="st0" x="534.8" y="436.8" width="9.2" height="81"/>
    <rect class="st0" x="534.8" y="404.1" width="9.2" height="16.8"/>
    <path class="st0" d="M622.2,438.7c-4.6-2.5-9.7-3.8-15.3-3.8s-11.8,1.6-16.6,4.7c-3.2,2.1-5.7,4.8-7.6,7.9v-10.8h-9.2v81h9.2v-48.8c0-4.9.9-9.2,2.7-13,1.8-3.8,4.5-6.7,7.9-8.8,3.5-2.1,7.5-3.2,12.1-3.2s8.3.9,11.7,2.8c3.4,1.9,6.1,4.6,8,8.1,1.9,3.5,2.9,7.7,2.9,12.6v50.3h9.2v-52.9c0-5.8-1.4-11-4.1-15.5-2.7-4.5-6.4-8.1-11-10.6Z"/>
    <path class="st0" d="M732.4,451.4c-2.9-4.6-6.7-8.3-11.4-11.2-5.7-3.5-12.1-5.3-19.2-5.3s-14.4,1.8-20.4,5.5c-6,3.7-10.6,8.6-14,14.7-3.4,6.2-5.1,13-5.1,20.5s1.7,14.4,5.1,20.6c3.4,6.2,8.1,11.1,14.1,14.8,6,3.7,12.8,5.5,20.3,5.5s13.6-1.8,19.4-5.4c4.8-3,8.5-6.9,11.3-11.7v15.2c0,6.2-1.4,11.4-4.2,15.5-2.8,4.1-6.4,7.2-10.8,9.2-4.4,2-9.1,3-14.2,3s-11.7-1.4-16.2-4.3c-4.5-2.9-7.9-6.5-10.1-10.8l-8.2,4.4c1.9,3.8,4.6,7.1,7.9,10.1,3.4,2.9,7.3,5.3,11.9,7,4.6,1.7,9.6,2.6,15,2.6s14-1.6,19.8-4.7c5.7-3.2,10.2-7.5,13.5-13,3.3-5.5,4.9-11.8,4.9-18.8v-78h-9.2v14.7ZM728.1,491.6c-2.6,4.8-6.2,8.7-10.8,11.5-4.5,2.8-9.6,4.3-15.3,4.3s-11.1-1.4-15.6-4.3c-4.5-2.8-8.1-6.7-10.6-11.5-2.5-4.8-3.8-10.1-3.8-15.9s1.3-11.1,3.8-15.9c2.5-4.8,6.1-8.6,10.7-11.4,4.6-2.8,9.8-4.3,15.6-4.3s10.8,1.4,15.3,4.3c4.5,2.9,8.1,6.7,10.8,11.4,2.6,4.8,4,10.1,4,15.9s-1.3,11.1-4,15.9Z"/>
    <path class="st0" d="M859.6,440.4c-6.2-3.7-13.2-5.5-20.9-5.5s-14.8,1.8-21,5.5c-6.2,3.7-11,8.7-14.6,15.1-3.6,6.4-5.4,13.6-5.4,21.7s1.8,15.3,5.4,21.7c3.6,6.5,8.5,11.5,14.7,15.2,6.2,3.7,13.2,5.5,20.9,5.5s14.5-1.8,20.7-5.5c6.2-3.7,11.1-8.7,14.7-15.1,3.7-6.4,5.5-13.7,5.5-21.8s-1.8-15.4-5.3-21.7c-3.6-6.4-8.4-11.4-14.6-15ZM865.7,494.3c-2.7,5.1-6.5,9.1-11.2,12-4.7,2.9-10,4.3-15.8,4.3s-11.2-1.5-15.9-4.3c-4.7-2.9-8.4-6.9-11.2-12-2.8-5.1-4.2-10.8-4.2-17.1s1.4-12,4.1-17c2.7-5,6.5-9,11.2-11.9s10-4.3,15.9-4.3,11.2,1.5,15.9,4.4c4.7,3,8.4,6.9,11.1,11.9,2.7,5,4.1,10.6,4.1,16.9s-1.4,12-4.1,17.1Z"/>
    <path class="st0" d="M954.7,438.7c-4.6-2.5-9.7-3.8-15.3-3.8s-11.8,1.6-16.6,4.7c-3.2,2.1-5.7,4.8-7.6,7.9v-10.8h-9.2v81h9.2v-48.8c0-4.9.9-9.2,2.7-13,1.8-3.8,4.5-6.7,7.9-8.8,3.5-2.1,7.5-3.2,12.1-3.2s8.3.9,11.7,2.8c3.4,1.9,6.1,4.6,8,8.1,1.9,3.5,2.9,7.7,2.9,12.6v50.3h9.2v-52.9c0-5.8-1.4-11-4.1-15.5-2.7-4.5-6.4-8.1-11-10.6Z"/>
    <path class="st0" d="M1075.6,438.4c-4.5-2.3-9.7-3.4-15.6-3.4s-9.1.8-13.3,2.4c-4.2,1.6-7.8,3.8-11,6.6-3.2,2.7-5.5,5.7-7,9l8.2,4.4c2.1-4.1,5.2-7.4,9.3-9.9,4.1-2.5,8.6-3.8,13.7-3.8s11.2,1.7,15.1,5c3.9,3.4,5.8,7.7,5.8,13.1v4.5l-30.4,5.1c-6.2,1-11.2,2.8-15.1,5.3-3.9,2.5-6.7,5.5-8.4,8.9-1.7,3.5-2.6,7.2-2.6,11.1s1.2,8.4,3.5,11.9c2.3,3.5,5.5,6.2,9.5,8.1,4,1.9,8.5,2.9,13.6,2.9s9.5-.8,13.7-2.5c4.1-1.7,7.7-3.9,10.8-6.6,2.3-2.1,4.2-4.3,5.5-6.7v13.9h9.2v-56c0-5.3-1.3-9.9-3.8-14-2.5-4-6.1-7.2-10.6-9.5ZM1067,507.2c-4.4,2.7-9.5,4-15.4,4s-9.3-1.4-12.6-4.1c-3.3-2.7-5-6.3-5-10.7s1.4-7.6,4.3-10.7c2.8-3.1,7.7-5.1,14.6-6.3l27.9-4.6v7.1c0,5.3-1.2,10.1-3.7,14.6-2.4,4.4-5.8,8-10.2,10.7Z"/>
    <path class="st0" d="M1198,438.7c-4.6-2.5-9.7-3.8-15.3-3.8s-11.8,1.6-16.6,4.7c-3.2,2.1-5.7,4.8-7.6,7.9v-10.8h-9.2v81h9.2v-48.8c0-4.9.9-9.2,2.7-13,1.8-3.8,4.5-6.7,7.9-8.8,3.5-2.1,7.5-3.2,12.1-3.2s8.3.9,11.7,2.8c3.4,1.9,6.1,4.6,8,8.1,1.9,3.5,2.9,7.7,2.9,12.6v50.3h9.2v-52.9c0-5.8-1.4-11-4.1-15.5-2.7-4.5-6.4-8.1-11-10.6Z"/>
    <path class="st0" d="M1304,446.5c-3.3-3.6-7.2-6.4-11.7-8.5-4.5-2-9.6-3-15.2-3s-13.9,1.8-19.8,5.5c-5.9,3.7-10.6,8.7-14,15-3.5,6.4-5.2,13.6-5.2,21.6s1.8,15.3,5.3,21.7c3.6,6.5,8.4,11.5,14.5,15.3,6.1,3.7,13,5.6,20.6,5.6s10-.9,14.4-2.6c4.4-1.7,8.3-4.1,11.7-7.1,3.4-3,6-6.4,7.8-10.1l-7.8-4.1c-2.7,4.7-6.3,8.4-10.7,11.2-4.4,2.8-9.5,4.2-15.4,4.2s-11.1-1.5-15.9-4.3c-4.8-2.9-8.5-6.9-11.3-12-2.3-4.3-3.6-9.2-3.8-14.6h66.2c.2-1.2.4-2.4.5-3.5,0-1.1.2-2.2.2-3.2,0-5.1-.9-9.9-2.7-14.6-1.8-4.6-4.3-8.7-7.6-12.4ZM1251.1,459.7c2.6-5,6.3-9,10.8-11.9,4.6-2.9,9.6-4.3,15.1-4.3s10.4,1.4,14.7,4.2c4.3,2.8,7.7,6.6,10,11.3,1.9,3.9,2.8,8.1,2.8,12.7h-56.9c.4-4.4,1.6-8.4,3.5-12Z"/>
    <polygon class="st0" points="1385.9 436.8 1363.3 469.2 1340.7 436.8 1329.3 436.8 1357.6 477.2 1329.1 517.8 1340.5 517.8 1363.3 485.2 1385.9 517.8 1397.3 517.8 1368.9 477.2 1397.3 436.8 1385.9 436.8"/>
    <path class="st0" d="M1448,510c-3.7,0-6.5-.7-8.4-2-1.9-1.3-3.2-3.1-3.9-5.2-.7-2.1-1-4.3-1-6.6v-50.8h17.7v-8.7h-17.7v-18.9h-9.2v8.7c0,3.2-.8,5.6-2.4,7.5-1.6,1.8-4,2.7-7,2.7h-5.8v8.7h15.3v50.8c0,7.3,1.8,12.9,5.5,16.7,3.7,3.8,8.8,5.7,15.6,5.7s1.9,0,3.4-.2c1.4-.2,2.7-.4,3.8-.7v-8.2c-.7.1-1.7.2-2.8.3-1.2.1-2.2.2-3,.2Z"/>
    <rect class="st0" x="1510" y="402.3" width="9.2" height="115.5"/>
    <path class="st0" d="M1611.6,446.5c-3.3-3.6-7.2-6.4-11.7-8.5-4.5-2-9.6-3-15.2-3s-13.9,1.8-19.8,5.5c-5.9,3.7-10.6,8.7-14,15-3.5,6.4-5.2,13.6-5.2,21.6s1.8,15.3,5.3,21.7c3.6,6.5,8.4,11.5,14.5,15.3,6.1,3.7,13,5.6,20.6,5.6s10-.9,14.4-2.6c4.4-1.7,8.3-4.1,11.7-7.1,3.4-3,6-6.4,7.8-10.1l-7.8-4.1c-2.7,4.7-6.3,8.4-10.7,11.2-4.4,2.8-9.5,4.2-15.4,4.2s-11.1-1.5-15.9-4.3c-4.8-2.9-8.5-6.9-11.3-12-2.3-4.3-3.6-9.2-3.8-14.6h66.2c.2-1.2.4-2.4.5-3.5,0-1.1.2-2.2.2-3.2,0-5.1-.9-9.9-2.7-14.6-1.8-4.6-4.3-8.7-7.6-12.4ZM1558.7,459.7c2.6-5,6.3-9,10.8-11.9,4.6-2.9,9.6-4.3,15.1-4.3s10.4,1.4,14.7,4.2c4.3,2.8,7.7,6.6,10,11.3,1.9,3.9,2.8,8.1,2.8,12.7h-56.9c.4-4.4,1.6-8.4,3.5-12Z"/>
    <polygon class="st0" points="1673.5 505.2 1646.9 436.8 1636.7 436.8 1668.7 517.8 1678.2 517.8 1710.7 436.8 1700.2 436.8 1673.5 505.2"/>
    <path class="st0" d="M1791.5,446.5c-3.3-3.6-7.2-6.4-11.7-8.5-4.5-2-9.6-3-15.2-3s-13.9,1.8-19.8,5.5c-5.9,3.7-10.6,8.7-14,15-3.5,6.4-5.2,13.6-5.2,21.6s1.8,15.3,5.3,21.7c3.6,6.5,8.4,11.5,14.5,15.3,6.1,3.7,13,5.6,20.6,5.6s10-.9,14.4-2.6c4.4-1.7,8.3-4.1,11.7-7.1,3.4-3,6-6.4,7.8-10.1l-7.8-4.1c-2.7,4.7-6.3,8.4-10.7,11.2-4.4,2.8-9.5,4.2-15.4,4.2s-11.1-1.5-15.9-4.3c-4.8-2.9-8.5-6.9-11.3-12-2.3-4.3-3.6-9.2-3.8-14.6h66.2c.2-1.2.4-2.4.5-3.5,0-1.1.2-2.2.2-3.2,0-5.1-.9-9.9-2.7-14.6-1.8-4.6-4.3-8.7-7.6-12.4ZM1738.6,459.7c2.6-5,6.3-9,10.8-11.9,4.6-2.9,9.6-4.3,15.1-4.3s10.4,1.4,14.7,4.2c4.3,2.8,7.7,6.6,10,11.3,1.9,3.9,2.8,8.1,2.8,12.7h-56.9c.4-4.4,1.6-8.4,3.5-12Z"/>
    <rect class="st0" x="1828.2" y="402.3" width="9.2" height="115.5"/>
  </g>
  <g>
    <path class="st0" d="M228.3,146.3c-7.4-8.3-16.4-14.9-26.9-19.8-10.6-4.9-22.7-7.3-36.3-7.3s-32,4.1-45.5,12.4c-13.5,8.3-24.2,19.6-32,33.9-7.8,14.3-11.8,30.7-11.8,49.1s4,34.6,11.9,49.2c7.9,14.7,18.8,26.2,32.7,34.6,13.9,8.4,29.6,12.6,47.4,12.6s24.2-2,34.6-6.1c10.3-4.1,19.3-9.6,26.9-16.5,7.6-6.9,13.2-14.6,16.9-23l-26.6-13.6c-5.2,8.9-12,16.1-20.4,21.8-8.4,5.7-18.7,8.5-31,8.5s-21.4-2.8-30.8-8.3c-9.4-5.6-16.7-13.4-21.8-23.5-3.9-7.6-6-16.2-6.4-25.7h140.5c.5-2.7.9-5.6,1.2-8.7.3-3.1.5-5.8.5-8.3,0-11.4-2-22.3-6-32.9-4-10.6-9.7-20-17-28.3ZM135.8,155.7c8.9-5.4,18.6-8.2,29.3-8.2s20.2,2.7,28.6,8.2c8.4,5.4,14.8,12.8,19.1,22.1,2.8,6,4.2,12.4,4.4,19.4h-107.3c.9-6.6,2.7-12.7,5.4-18.2,4.9-10.1,11.8-17.9,20.6-23.3Z"/>
    <path class="st0" d="M429.1,147.8c-6.1-7.6-13.7-13.9-22.8-18.9-11.8-6.5-25.3-9.7-40.5-9.7s-32.8,4.2-46.5,12.6c-13.7,8.4-24.6,19.8-32.5,34.2-8,14.4-11.9,30.8-11.9,49.2s4,34.2,11.9,48.7c7.9,14.5,18.8,26,32.5,34.4,13.7,8.4,29.2,12.6,46.5,12.6s28.6-3.3,40.7-9.9c9.8-5.3,17.6-12.4,23.7-21.2v27h31V49h-32v98.8ZM421.1,248.5c-5.3,9.9-12.6,17.7-21.6,23.3-9.1,5.7-19.4,8.5-31,8.5s-21.9-2.8-31-8.5c-9.1-5.7-16.2-13.5-21.5-23.3-5.2-9.9-7.8-21-7.8-33.2s2.6-23.9,7.8-33.6c5.2-9.7,12.4-17.4,21.6-23.2,9.2-5.8,19.5-8.7,30.8-8.7s21.9,2.8,31,8.5c9.1,5.7,16.3,13.5,21.6,23.3,5.3,9.9,8,21.1,8,33.6s-2.7,23.3-8,33.2Z"/>
    <path class="st0" d="M644.4,148.9c-6.3-8.2-14.1-14.8-23.3-19.9-11.7-6.5-24.7-9.7-39-9.7s-32.6,4-46.2,12.1c-13.5,8.1-24.1,19-31.8,32.9-7.7,13.9-11.6,29.4-11.6,46.7s3.9,32.5,11.6,46.5c7.7,14,18.4,25,32,33,13.6,8.1,29.1,12.1,46.3,12.1s27.4-3.3,39.3-9.9c8.7-4.8,15.9-11.2,21.6-19.1v25.6c0,11.1-2.5,20.6-7.5,28.4-5,7.8-11.7,13.7-20.3,17.7-8.5,4-18,6-28.4,6s-24.9-3-33.9-9c-9-6-15-13.3-18.2-22l-29.6,13.6c4.1,9.5,10,17.9,17.9,25,7.8,7.2,17.3,12.8,28.3,16.9,11,4.1,23,6.1,35.9,6.1s32.2-3.6,45.5-10.7,23.7-17,31.2-29.5c7.5-12.5,11.2-26.7,11.2-42.6V123.3h-31v25.6ZM635.5,241.7c-5.2,9.2-12.2,16.5-21,22-8.7,5.5-18.6,8.2-29.5,8.2s-21.5-2.7-30.5-8.2c-9-5.4-16-12.8-21.1-22-5.1-9.2-7.7-19.5-7.7-30.8s2.6-21.6,7.7-30.8c5.1-9.2,12.2-16.5,21.3-22,9.1-5.4,19.2-8.2,30.3-8.2s20.7,2.7,29.5,8.2c8.7,5.5,15.7,12.8,21,22.1,5.2,9.3,7.8,19.5,7.8,30.7s-2.6,21.6-7.8,30.8Z"/>
    <path class="st0" d="M876.2,174.6c-4-10.6-9.7-20-17-28.3-7.4-8.3-16.4-14.9-26.9-19.8-10.6-4.9-22.7-7.3-36.3-7.3s-32,4.1-45.5,12.4c-13.5,8.3-24.2,19.6-32,33.9-7.8,14.3-11.8,30.7-11.8,49.1s4,34.6,11.9,49.2c7.9,14.7,18.8,26.2,32.7,34.6,13.9,8.4,29.6,12.6,47.4,12.6s24.2-2,34.6-6.1c10.3-4.1,19.3-9.6,26.9-16.5,7.6-6.9,13.2-14.6,16.9-23l-26.6-13.6c-5.2,8.9-12,16.1-20.4,21.8-8.4,5.7-18.7,8.5-31,8.5s-21.4-2.8-30.8-8.3c-9.4-5.6-16.7-13.4-21.8-23.5-3.9-7.6-6-16.2-6.4-25.7h140.5c.5-2.7.9-5.6,1.2-8.7.3-3.1.5-5.8.5-8.3,0-11.4-2-22.3-6-32.9ZM766.7,155.7c8.9-5.4,18.6-8.2,29.3-8.2s20.2,2.7,28.6,8.2c8.4,5.4,14.8,12.8,19.1,22.1,2.8,6,4.2,12.4,4.4,19.4h-107.3c.9-6.6,2.7-12.7,5.4-18.2,4.9-10.1,11.8-17.9,20.6-23.3Z"/>
  </g>
  <g>
    <polygon class="st1" points="1080.5 249.6 1126.9 122.5 1093.7 122.5 1047.3 249.6 1080.5 249.6"/>
    <polygon class="st1" points="1013.2 276.9 1069.5 122.5 1036.3 122.5 980 276.9 1013.2 276.9"/>
    <polygon class="st1" points="912.6 304.1 978.9 122.5 1012.2 122.5 945.9 304.1 912.6 304.1"/>
    <polygon class="st1" points="912.6 304.1 978.9 122.5 1012.2 122.5 945.9 304.1 912.6 304.1"/>
  </g>
  <g>
    <path class="st0" d="M1299.1,127.4c-10.5-5.9-22.5-8.9-36.1-8.9s-24.8,3-34.8,9c-7.2,4.4-13,10.2-17.4,17.4v-22.4h-36.8v184.3h38.5v-108.7c0-9.1,1.7-16.9,5.1-23.5,3.4-6.6,8.2-11.6,14.5-15.2,6.2-3.5,13.3-5.3,21.3-5.3s15,1.8,21.3,5.3c6.2,3.5,11.1,8.5,14.5,15,3.4,6.5,5.1,14.4,5.1,23.7v108.7h38.2v-118.9c0-13.6-3-25.7-8.9-36.1-5.9-10.4-14.1-18.6-24.5-24.5Z"/>
    <path class="st0" d="M1511.6,145.3c-7.5-8.3-16.7-14.8-27.6-19.6-10.9-4.8-23.3-7.2-37.1-7.2s-32.7,4.1-46.3,12.4c-13.6,8.3-24.5,19.6-32.5,33.9-8.1,14.3-12.1,30.8-12.1,49.4s4,34.6,11.9,49.2c7.9,14.6,19,26.2,33.2,34.7,14.2,8.5,30.5,12.8,48.9,12.8s24-2,34.6-6c10.6-4,19.6-9.4,27.3-16.3,7.6-6.9,13.2-14.7,16.9-23.3l-31.3-15.3c-4.5,8-10.7,14.4-18.6,19.4-7.8,5-17.3,7.5-28.4,7.5s-20.6-2.6-29.1-7.8c-8.5-5.2-15.1-12.5-19.8-21.8-3.2-6.4-5-13.6-5.5-21.5h137.1c.7-2.7,1.1-5.7,1.4-8.9.2-3.2.3-6.2.3-9.2,0-12-2-23.4-6-34.1-4-10.7-9.7-20.2-17.2-28.4ZM1401.3,180.4c4.3-9.4,10.4-16.7,18.4-21.8,8-5.1,17-7.7,27.3-7.7s19.1,2.6,26.7,7.7c7.6,5.1,13.3,12,17,20.8,2.1,4.9,3.2,10.2,3.4,15.8h-97.2c.9-5.4,2.3-10.3,4.4-14.8Z"/>
    <polygon class="st0" points="1669.4 122.6 1627.5 183.7 1585.6 122.6 1540.3 122.6 1604.6 214.6 1540.3 306.9 1585.6 306.9 1627.4 245.2 1669 306.9 1714.3 306.9 1650 214.6 1714.7 122.6 1669.4 122.6"/>
    <path class="st0" d="M1831.5,274.5c-2.3.2-4.3.3-6.1.3-7.3,0-13.2-1.2-17.7-3.6-4.6-2.4-7.8-5.8-9.9-10.2-2-4.4-3.1-9.8-3.1-16.2v-87.5h41.9v-34.7h-41.9v-42.2h-38.5v14.3c0,8.6-2.4,15.4-7.2,20.4-4.8,5-11.5,7.5-20.1,7.5h-5.1v34.7h32.4v89.2c0,19.8,5.3,35.1,16,46,10.7,10.9,25.7,16.4,45,16.4s6.4-.2,10.2-.7c3.9-.5,7.4-.9,10.6-1.4v-33c-2,.2-4.2.5-6.5.7Z"/>
  </g>
</svg>