<svg width="95" height="55" viewBox="0 0 95 55" fill="none" xmlns="http://www.w3.org/2000/svg">
<path d="M1.0874 37.0609C1.0874 27.4638 8.93696 19.9922 19.1671 19.9922C25.0864 19.9922 30.4911 22.633 33.5794 26.6265L29.1399 31.0708C26.9523 28.1723 23.1562 26.1756 19.2315 26.1756C13.1191 26.1756 8.22921 30.7487 8.22921 37.0609C8.22921 43.4376 13.1191 48.0107 19.2315 48.0107C23.4779 48.0107 27.274 45.8851 29.4616 42.9223L33.8368 47.2378C30.8771 51.4244 25.2151 54.1941 19.1671 54.1941C8.93696 54.1941 1.0874 46.7225 1.0874 37.0609Z" fill="#83858B"/>
<path d="M39.6274 21.1523H46.6406V53.0355H39.6274V21.1523Z" fill="#83858B"/>
<path d="M59.7017 44.4681V27.0773H52.0452V21.1515H60.0234V14.324L66.5861 11.1035V21.1515H77.0093V27.0773H66.5861V43.3087C66.5861 46.5292 68.3877 47.9462 71.7977 47.9462C73.5349 47.9462 75.2078 47.6242 76.945 46.8513V52.9058C75.1434 53.7432 72.9559 54.194 70.5109 54.194C64.2699 54.194 59.7017 50.7803 59.7017 44.4681Z" fill="#83858B"/>
<path d="M82.5425 21.1523H89.5556V53.0355H82.5425V21.1523Z" fill="#83858B"/>
<path d="M64.5272 0.863281C76.7519 0.863281 87.3681 6.85344 93.9309 16.0641H85.7596C80.4837 10.2028 73.1488 6.5958 64.5272 6.5958C55.9056 6.5958 48.5707 10.2028 43.2948 16.0641H35.1235C41.6863 6.85344 52.3025 0.863281 64.5272 0.863281Z" fill="#201E1E"/>
</svg>
