<svg width="188" height="55" viewBox="0 0 188 55" fill="none" xmlns="http://www.w3.org/2000/svg">
<path d="M46.3962 41.643C54.3596 37.0575 50.6434 27.4262 38.1196 20.2092C25.5958 12.9923 8.88579 10.8472 0.922441 15.4327C0.643941 15.5977 0.382847 15.7627 0.13916 15.9277C8.0677 12.1151 23.3939 14.2689 34.9865 20.9474C41.8793 24.9163 45.9959 29.6581 46.8053 33.8007C45.6391 30.3355 42.0708 26.5143 36.4312 23.2662C25.5871 17.022 11.1312 15.1634 4.23833 19.1323C4.00335 19.2713 3.77706 19.4102 3.55949 19.5666C10.4175 16.2664 23.6811 18.1336 33.7158 23.9089C44.116 29.9013 47.2056 37.8912 40.5913 41.7038C37.9455 43.2236 34.1422 43.8576 29.8603 43.6839C30.3651 43.736 30.8699 43.7794 31.366 43.8142C31.0875 43.8055 30.809 43.7968 30.5305 43.7881C36.8663 44.4829 42.6191 43.8228 46.3962 41.643Z" fill="#83858B"/>
<path d="M33.2895 3.71744C26.7882 -2.77001 18.4332 3.30926 14.6909 17.2481C10.9486 31.187 13.2027 47.8529 19.7039 54.3404C19.9302 54.5662 20.1565 54.7746 20.3915 54.9657C14.6561 48.3132 12.7675 32.9848 16.2314 20.0794C18.294 12.4021 21.8101 7.21736 25.6133 5.35884C22.5585 7.38237 19.7909 11.8115 18.1025 18.0906C14.865 30.1536 16.8145 44.5788 22.4367 50.1891C22.6369 50.3802 22.8283 50.5625 23.0285 50.7275C18.059 44.9696 16.4315 31.6994 19.4254 20.531C22.5324 8.95429 29.4688 3.9085 34.8734 9.30168C37.0318 11.4555 38.6245 14.9641 39.5644 19.1327C39.4861 18.629 39.3991 18.134 39.3033 17.6476C39.373 17.9169 39.4339 18.1861 39.4948 18.4553C38.5113 12.1763 36.3791 6.80049 33.2895 3.71744Z" fill="#83858B"/>
<path d="M3.78613 39.836C3.78613 49.0157 14.0036 50.6137 26.5274 43.3967C39.0512 36.1797 49.2686 22.814 49.2686 13.6343C49.2686 13.313 49.2512 13.009 49.2251 12.7051C48.5637 21.4592 39.0338 33.6264 27.4412 40.3136C20.5483 44.2912 14.3778 45.4723 10.3744 44.1002C13.9688 44.8297 19.0688 43.6485 24.7084 40.4005C35.5525 34.1562 44.3949 22.5795 44.3949 14.6418C44.3949 14.3639 44.3862 14.1033 44.3601 13.8428C43.7944 21.4245 35.5438 31.9503 25.5091 37.7343C15.1089 43.7267 6.62335 42.398 6.62335 34.7728C6.62335 31.7245 7.98104 28.129 10.27 24.5162C9.97405 24.9244 9.67814 25.3413 9.39964 25.7494C9.53889 25.515 9.68685 25.2805 9.8348 25.0373C6.09246 30.1786 3.78613 35.485 3.78613 39.836Z" fill="#83858B"/>
<path d="M89.4244 35.3376V17.369H100.382V19.132H91.4261V25.3416H98.815V27.0785H91.4261V33.5746H100.382V35.3376H89.4244ZM79.8509 19.132H75.4036V25.3416H80.0337C81.1477 25.3416 81.9571 25.081 82.4706 24.5513C82.9841 24.0215 83.2365 23.2225 83.2365 22.163C83.2365 21.0948 82.9667 20.3305 82.4184 19.8529C81.8614 19.3752 81.0085 19.132 79.8509 19.132ZM80.0598 27.0785H75.4036V33.5746H80.1904C81.374 33.5746 82.2704 33.3228 82.8796 32.8364C83.4976 32.3414 83.8022 31.4729 83.8022 30.2224C83.8022 29.5623 83.6803 29.0065 83.4279 28.5636C83.1755 28.112 82.8448 27.7906 82.4271 27.5996C81.6612 27.2522 80.8692 27.0785 80.0598 27.0785ZM73.3932 17.369H79.9293C81.7134 17.369 83.0537 17.7338 83.9501 18.472C84.8465 19.2102 85.2904 20.3653 85.2904 21.9372C85.2904 23.0662 85.0989 23.9433 84.7073 24.5773C84.3156 25.2113 83.7412 25.7063 82.9754 26.0711C84.8813 26.7311 85.8387 28.138 85.8387 30.3005C85.8387 32.0982 85.36 33.3923 84.4114 34.1739C83.454 34.9555 82.0789 35.3463 80.2774 35.3463H73.4106V17.369H73.3932ZM64.4899 27.9383V26.1492H69.4594V34.9815C67.2749 35.3984 65.3254 35.6068 63.6022 35.6068C60.9826 35.6068 59.1636 34.8513 58.1454 33.3488C57.1271 31.8377 56.6223 29.5189 56.6223 26.375C56.6223 23.2312 57.1271 20.9037 58.1454 19.3926C59.1636 17.8814 60.9565 17.1172 63.55 17.1172C65.1601 17.1172 66.8398 17.2909 68.5717 17.6383L69.4594 17.7946L69.3811 19.4534C67.2314 19.0886 65.3602 18.9062 63.785 18.9062C61.792 18.9062 60.443 19.4794 59.7554 20.6345C59.0592 21.7895 58.7111 23.7002 58.7111 26.375C58.7111 29.0499 59.0592 30.9605 59.7554 32.1156C60.4517 33.2707 61.7833 33.8439 63.7676 33.8439C64.986 33.8439 66.2219 33.7223 67.4925 33.4791V27.947H64.4899V27.9383Z" fill="#83858B"/>
<path d="M180.659 23.8302C178.771 23.8302 177.822 24.4902 177.822 25.8016C177.822 26.4095 178.039 26.8351 178.475 27.087C178.91 27.3388 179.902 27.5993 181.442 27.8686C182.983 28.1378 184.079 28.5112 184.723 28.9976C185.367 29.4839 185.689 30.3958 185.689 31.7246C185.689 33.0533 185.263 34.0347 184.401 34.66C183.54 35.2853 182.287 35.5979 180.642 35.5979C179.563 35.5979 178.301 35.4763 176.838 35.2332L176.055 35.1029L176.16 33.4181C178.135 33.7134 179.632 33.861 180.633 33.861C181.643 33.861 182.408 33.7047 182.939 33.3833C183.47 33.062 183.731 32.5236 183.731 31.7767C183.731 31.0211 183.505 30.5174 183.052 30.2482C182.6 29.979 181.608 29.7271 180.085 29.4839C178.553 29.2408 177.474 28.8847 176.83 28.4157C176.186 27.9467 175.864 27.087 175.864 25.819C175.864 24.5597 176.308 23.6218 177.204 23.0138C178.1 22.4059 179.214 22.102 180.546 22.102C181.608 22.102 182.931 22.2235 184.532 22.4667L185.263 22.597L185.211 24.2558C183.296 23.9692 181.773 23.8302 180.659 23.8302ZM167.57 35.3374V22.3538H169.493V24.1168C170.999 23.0746 172.591 22.3972 174.254 22.0672V24.0386C173.523 24.1776 172.765 24.3947 171.973 24.69C171.181 24.9853 170.581 25.2458 170.163 25.4716L169.51 25.8103V35.3374H167.57ZM162.574 28.0944C162.574 26.5051 162.322 25.3761 161.808 24.716C161.295 24.056 160.459 23.726 159.31 23.726C158.153 23.726 157.291 24.0734 156.708 24.7681C156.125 25.4629 155.829 26.5659 155.812 28.0944H162.574ZM163.279 33.7307L164.036 33.6526L164.088 35.1811C162.113 35.459 160.416 35.5979 159.014 35.5979C157.143 35.5979 155.812 35.0595 155.037 33.9739C154.254 32.8883 153.862 31.2035 153.862 28.9194C153.862 24.3687 155.672 22.0933 159.302 22.0933C161.051 22.0933 162.365 22.5796 163.235 23.561C164.106 24.5423 164.541 26.0708 164.541 28.1725L164.436 29.6489H155.847C155.847 31.0906 156.108 32.1501 156.63 32.8449C157.152 33.5397 158.057 33.887 159.345 33.887C160.625 33.887 161.939 33.8349 163.279 33.7307ZM143.915 35.3374H141.965V16.6914H143.915V27.7036L145.942 27.5994L149.667 22.3538H151.878L147.639 28.3289L152.061 35.3374H149.85L145.968 29.3102L143.915 29.3884V35.3374ZM129.65 28.7805C129.65 30.6737 129.876 32.0025 130.338 32.7667C130.799 33.531 131.756 33.9131 133.227 33.9131C134.698 33.9131 135.655 33.5397 136.099 32.7841C136.552 32.0285 136.778 30.6998 136.778 28.7978C136.778 26.8959 136.526 25.5845 136.021 24.8637C135.516 24.1429 134.585 23.7868 133.218 23.7868C131.861 23.7868 130.921 24.1429 130.407 24.8637C129.911 25.5758 129.65 26.8872 129.65 28.7805ZM127.648 28.8239C127.648 26.453 128.075 24.7334 128.919 23.6826C129.772 22.623 131.208 22.102 133.227 22.102C135.246 22.102 136.682 22.6317 137.518 23.6826C138.362 24.7421 138.78 26.453 138.78 28.8239C138.78 31.1948 138.379 32.9144 137.579 33.9913C136.778 35.0682 135.325 35.5979 133.21 35.5979C131.095 35.5979 129.633 35.0595 128.841 33.9913C128.049 32.9144 127.648 31.1948 127.648 28.8239ZM119.215 35.3374V22.3538H121.138V24.1168C122.644 23.0746 124.237 22.3972 125.899 22.0672V24.0386C125.168 24.1776 124.411 24.3947 123.619 24.69C122.827 24.9853 122.226 25.2458 121.809 25.4716L121.156 25.8103V35.3374H119.215ZM109.851 33.861C111.548 33.861 112.679 33.4789 113.219 32.7059C113.767 31.933 114.037 30.6303 114.037 28.7978C114.037 26.9654 113.819 25.68 113.384 24.9418C112.949 24.2036 112.183 23.8389 111.069 23.8389C110.059 23.8389 109.032 24.03 107.971 24.4121L107.448 24.5945V33.7394C108.58 33.8176 109.381 33.861 109.851 33.861ZM111.278 22.0933C113.027 22.0933 114.254 22.5883 114.959 23.587C115.664 24.5858 116.012 26.3314 116.012 28.8239C116.012 31.3164 115.577 33.0707 114.698 34.0868C113.819 35.1029 112.209 35.6066 109.868 35.6066C109.137 35.6066 107.936 35.5371 106.247 35.3982L105.516 35.32V16.6914H107.44V23.0052C108.771 22.3972 110.051 22.0933 111.278 22.0933Z" fill="#83858B"/>
<path d="M182.374 44.6924C182.374 45.0919 182.461 45.3785 182.644 45.5522C182.827 45.7259 183.123 45.8041 183.541 45.8041C183.958 45.8041 184.254 45.7172 184.428 45.5522C184.611 45.3785 184.698 45.0919 184.698 44.6837C184.698 44.2756 184.611 43.989 184.428 43.8153C184.254 43.6416 183.95 43.5634 183.541 43.5634C183.123 43.5634 182.818 43.6503 182.644 43.824C182.461 44.0063 182.374 44.2929 182.374 44.6924ZM182.305 48.9653C182.305 49.33 182.409 49.5819 182.609 49.7208C182.809 49.8598 183.184 49.9293 183.732 49.9293C184.272 49.9293 184.663 49.8511 184.898 49.7035C185.133 49.5558 185.255 49.304 185.255 48.9479C185.255 48.5918 185.168 48.366 185.003 48.2705C184.829 48.1663 184.498 48.1142 184.002 48.1142L182.896 48.0621C182.67 48.2271 182.522 48.366 182.444 48.4963C182.339 48.6179 182.305 48.7742 182.305 48.9653ZM183.749 50.5719C182.931 50.5719 182.357 50.459 182.035 50.2419C181.713 50.0161 181.548 49.6166 181.548 49.0261C181.548 48.7482 181.608 48.5224 181.73 48.3487C181.852 48.175 182.061 47.9752 182.357 47.7581C182.165 47.6278 182.07 47.3934 182.07 47.0546C182.07 46.9417 182.157 46.7246 182.322 46.412L182.418 46.247C181.878 46.0038 181.608 45.4827 181.608 44.7011C181.608 43.5374 182.244 42.9468 183.523 42.9468C183.854 42.9468 184.158 42.9815 184.437 43.051L184.594 43.0858L186.117 43.0423V43.6937L185.142 43.6763C185.368 43.9021 185.481 44.2408 185.481 44.7011C185.481 45.3438 185.325 45.7954 185.003 46.0472C184.681 46.2991 184.185 46.4294 183.497 46.4294C183.314 46.4294 183.149 46.412 182.992 46.3859C182.87 46.6899 182.809 46.881 182.809 46.9678C182.809 47.1762 182.87 47.3152 183.001 47.3673C183.131 47.4194 183.523 47.4455 184.185 47.4455C184.846 47.4455 185.316 47.5497 185.603 47.7494C185.89 47.9579 186.03 48.3574 186.03 48.9479C186.03 50.0335 185.264 50.5719 183.749 50.5719ZM177.031 48.1663H176.265V43.0423H177.022V43.3984C177.579 43.0944 178.11 42.9381 178.615 42.9381C179.302 42.9381 179.755 43.1205 179.99 43.4939C180.225 43.8587 180.346 44.5187 180.346 45.4567V48.1576H179.589V45.474C179.589 44.7619 179.52 44.2756 179.38 44.015C179.241 43.7545 178.945 43.6242 178.484 43.6242C178.266 43.6242 178.031 43.6589 177.788 43.7197C177.544 43.7805 177.361 43.85 177.231 43.9108L177.039 44.0063V48.1663H177.031ZM174.011 41.0014H174.785V41.896H174.011V41.0014ZM174.011 43.051H174.785V48.1663H174.011V43.051ZM169.511 47.2457C169.624 47.376 169.737 47.4628 169.859 47.5149C169.981 47.567 170.138 47.5844 170.338 47.5844C170.538 47.5844 170.756 47.5497 170.999 47.4889C171.243 47.4281 171.434 47.3586 171.565 47.2978L171.765 47.2023V43.7284C171.33 43.6503 170.921 43.6068 170.547 43.6068C170.025 43.6068 169.668 43.7718 169.459 44.1019C169.25 44.4319 169.154 44.9443 169.154 45.639C169.146 46.438 169.267 46.9678 169.511 47.2457ZM172.522 40.8191V48.1663H171.765V47.8189C171.234 48.1229 170.721 48.2705 170.207 48.2705C169.938 48.2705 169.694 48.2358 169.485 48.1663C169.276 48.0968 169.085 47.9752 168.911 47.8015C168.545 47.4368 168.354 46.7507 168.354 45.7606C168.354 44.7706 168.519 44.0498 168.85 43.6155C169.18 43.1726 169.729 42.9555 170.495 42.9555C170.895 42.9555 171.313 42.9989 171.757 43.0858V40.8191H172.522ZM163.906 46.6812C163.906 47.3065 164.167 47.6192 164.69 47.6192C165.151 47.6192 165.612 47.541 166.065 47.3847L166.3 47.3065V45.6217L164.785 45.7693C164.481 45.7954 164.254 45.8822 164.115 46.0385C163.976 46.1775 163.906 46.3946 163.906 46.6812ZM167.066 44.5969V47.2197C167.083 47.4715 167.283 47.6192 167.657 47.6713L167.623 48.2792C167.083 48.2792 166.674 48.1402 166.404 47.871C165.786 48.1402 165.177 48.2792 164.559 48.2792C164.089 48.2792 163.732 48.1489 163.48 47.8797C163.236 47.6105 163.114 47.2283 163.114 46.7333C163.114 46.2383 163.245 45.8649 163.497 45.6304C163.75 45.3959 164.15 45.2482 164.69 45.1961L166.3 45.0398V44.5969C166.3 44.2495 166.221 43.9976 166.073 43.85C165.925 43.7024 165.717 43.6242 165.455 43.6242C164.907 43.6242 164.341 43.6589 163.75 43.7284L163.428 43.7632L163.393 43.1813C164.141 43.0336 164.811 42.9555 165.395 42.9555C165.978 42.9555 166.395 43.0858 166.665 43.355C166.935 43.6068 167.066 44.0237 167.066 44.5969ZM159.894 48.1663V43.0423H160.651V43.7371C161.243 43.3289 161.87 43.0597 162.531 42.9294V43.7111C162.244 43.7632 161.948 43.85 161.635 43.9629C161.321 44.0758 161.086 44.18 160.921 44.2669L160.669 44.3971V48.1576H159.894V48.1663ZM158.954 43.7111H157.327V46.1601C157.327 46.7507 157.37 47.1328 157.457 47.3152C157.544 47.4976 157.744 47.5931 158.066 47.5931L158.98 47.5323L159.033 48.1663C158.571 48.2444 158.223 48.2792 157.988 48.2792C157.457 48.2792 157.083 48.1489 156.883 47.8884C156.674 47.6278 156.578 47.1328 156.578 46.4033V43.7111H155.847V43.0423H156.578V41.4791H157.335V43.0423H158.963V43.7111H158.954ZM150.486 48.1663V43.0423H151.243V43.7371C151.835 43.3289 152.462 43.0597 153.123 42.9294V43.7111C152.836 43.7632 152.54 43.85 152.227 43.9629C151.913 44.0758 151.678 44.18 151.513 44.2669L151.261 44.3971V48.1576H150.486V48.1663ZM145.63 45.5783C145.63 46.3251 145.717 46.8462 145.9 47.1502C146.082 47.4541 146.457 47.6018 147.04 47.6018C147.614 47.6018 147.997 47.4541 148.171 47.1589C148.345 46.8636 148.441 46.3338 148.441 45.5869C148.441 44.8401 148.345 44.319 148.145 44.0324C147.945 43.7458 147.579 43.6068 147.04 43.6068C146.5 43.6068 146.135 43.7458 145.934 44.0324C145.734 44.319 145.63 44.8314 145.63 45.5783ZM144.846 45.5956C144.846 44.6577 145.012 43.989 145.351 43.5721C145.691 43.1552 146.256 42.9468 147.048 42.9468C147.84 42.9468 148.406 43.1552 148.737 43.5721C149.067 43.989 149.233 44.6664 149.233 45.5956C149.233 46.5336 149.076 47.211 148.763 47.6365C148.45 48.0621 147.875 48.2705 147.04 48.2705C146.204 48.2705 145.63 48.0621 145.316 47.6365C145.003 47.211 144.846 46.5336 144.846 45.5956ZM142.662 43.7111V48.1663H141.896V43.7111H141.252V43.0423H141.896V42.582C141.896 41.8612 142.001 41.3662 142.201 41.1057C142.41 40.8451 142.766 40.7148 143.28 40.7148L144.316 40.7843L144.307 41.4183C143.924 41.4009 143.611 41.4009 143.358 41.4009C143.106 41.4009 142.932 41.4791 142.827 41.6441C142.723 41.8091 142.671 42.1218 142.671 42.5994V43.051H144.159V43.7197H142.662V43.7111ZM134.673 48.1663H133.907V43.0423H134.664V43.3984C135.221 43.0944 135.752 42.9381 136.256 42.9381C136.944 42.9381 137.397 43.1205 137.632 43.4939C137.867 43.8587 137.988 44.5187 137.988 45.4567V48.1576H137.231V45.474C137.231 44.7619 137.162 44.2756 137.022 44.015C136.883 43.7545 136.587 43.6242 136.126 43.6242C135.908 43.6242 135.673 43.6589 135.43 43.7197C135.186 43.7805 135.003 43.85 134.873 43.9108L134.681 44.0063V48.1663H134.673ZM129.05 45.5783C129.05 46.3251 129.137 46.8462 129.32 47.1502C129.503 47.4541 129.877 47.6018 130.46 47.6018C131.035 47.6018 131.418 47.4541 131.592 47.1589C131.766 46.8636 131.861 46.3338 131.861 45.5869C131.861 44.8401 131.766 44.319 131.565 44.0324C131.365 43.7458 131 43.6068 130.46 43.6068C129.921 43.6068 129.555 43.7458 129.355 44.0324C129.155 44.319 129.05 44.8314 129.05 45.5783ZM128.258 45.5956C128.258 44.6577 128.424 43.989 128.763 43.5721C129.094 43.1552 129.66 42.9468 130.46 42.9468C131.261 42.9468 131.818 43.1552 132.149 43.5721C132.479 43.989 132.645 44.6664 132.645 45.5956C132.645 46.5336 132.488 47.211 132.175 47.6365C131.861 48.0621 131.287 48.2705 130.451 48.2705C129.616 48.2705 129.042 48.0621 128.728 47.6365C128.424 47.211 128.258 46.5336 128.258 45.5956ZM126.239 41.0014H127.005V41.896H126.239V41.0014ZM126.239 43.051H127.005V48.1663H126.239V43.051ZM123.08 43.6329C122.331 43.6329 121.966 43.8934 121.966 44.4145C121.966 44.649 122.053 44.8227 122.218 44.9182C122.392 45.0138 122.775 45.118 123.385 45.2222C123.994 45.3264 124.42 45.474 124.673 45.6651C124.925 45.8562 125.056 46.2122 125.056 46.742C125.056 47.2718 124.881 47.6539 124.551 47.8971C124.211 48.1402 123.715 48.2705 123.071 48.2705C122.645 48.2705 122.149 48.2184 121.574 48.1229L121.27 48.0708L121.313 47.402C122.097 47.5149 122.68 47.5757 123.08 47.5757C123.48 47.5757 123.776 47.5149 123.985 47.3847C124.194 47.2544 124.298 47.046 124.298 46.7507C124.298 46.4554 124.211 46.2557 124.029 46.1428C123.855 46.0385 123.463 45.9343 122.862 45.8388C122.262 45.7433 121.835 45.6043 121.583 45.4219C121.331 45.2396 121.2 44.8922 121.2 44.3971C121.2 43.9021 121.374 43.5287 121.731 43.2942C122.079 43.0597 122.523 42.9381 123.054 42.9381C123.472 42.9381 123.994 42.9815 124.62 43.0771L124.908 43.1292L124.89 43.7805C124.116 43.685 123.515 43.6329 123.08 43.6329ZM118.311 43.6329C117.562 43.6329 117.197 43.8934 117.197 44.4145C117.197 44.649 117.284 44.8227 117.449 44.9182C117.623 45.0138 118.015 45.118 118.615 45.2222C119.224 45.3264 119.651 45.474 119.912 45.6651C120.164 45.8562 120.295 46.2122 120.295 46.742C120.295 47.2718 120.13 47.6539 119.79 47.8971C119.451 48.1402 118.955 48.2705 118.311 48.2705C117.884 48.2705 117.388 48.2184 116.814 48.1229L116.509 48.0708L116.553 47.402C117.336 47.5149 117.919 47.5757 118.319 47.5757C118.72 47.5757 119.016 47.5149 119.224 47.3847C119.433 47.2544 119.538 47.046 119.538 46.7507C119.538 46.4554 119.451 46.2557 119.268 46.1428C119.094 46.0385 118.702 45.9343 118.102 45.8388C117.501 45.7433 117.075 45.6043 116.822 45.4219C116.57 45.2396 116.439 44.8922 116.439 44.3971C116.439 43.9021 116.614 43.5287 116.97 43.2942C117.327 43.0597 117.762 42.9381 118.285 42.9381C118.702 42.9381 119.224 42.9815 119.851 43.0771L120.138 43.1292L120.103 43.7979C119.346 43.685 118.746 43.6329 118.311 43.6329ZM112.018 46.6812C112.018 47.3065 112.279 47.6192 112.802 47.6192C113.272 47.6192 113.724 47.541 114.177 47.3847L114.412 47.3065V45.6217L112.897 45.7693C112.593 45.7954 112.366 45.8822 112.227 46.0385C112.088 46.1775 112.018 46.3946 112.018 46.6812ZM115.178 44.5969V47.2197C115.195 47.4715 115.395 47.6192 115.769 47.6713L115.735 48.2792C115.195 48.2792 114.786 48.1402 114.516 47.871C113.898 48.1402 113.28 48.2792 112.671 48.2792C112.201 48.2792 111.836 48.1489 111.592 47.8797C111.348 47.6105 111.226 47.2283 111.226 46.7333C111.226 46.2383 111.357 45.8649 111.609 45.6304C111.862 45.3959 112.262 45.2482 112.802 45.1961L114.412 45.0398V44.5969C114.412 44.2495 114.333 43.9976 114.185 43.85C114.037 43.7024 113.829 43.6242 113.567 43.6242C113.019 43.6242 112.453 43.6589 111.862 43.7284L111.54 43.7632L111.505 43.1813C112.253 43.0336 112.923 42.9555 113.507 42.9555C114.09 42.9555 114.507 43.0858 114.777 43.355C115.047 43.6068 115.178 44.0237 115.178 44.5969ZM106.396 45.0832H108.189C109.164 45.0832 109.66 44.51 109.66 43.3637C109.66 42.8165 109.547 42.417 109.312 42.1565C109.077 41.9046 108.702 41.7744 108.189 41.7744H106.396V45.0832ZM108.206 45.778H106.405V48.1663H105.613V41.0796H108.206C108.981 41.0796 109.547 41.2707 109.921 41.6441C110.286 42.0175 110.478 42.5907 110.478 43.3637C110.469 44.979 109.712 45.778 108.206 45.778Z" fill="#83858B"/>
</svg>
