<svg width="176" height="56" viewBox="0 0 176 56" fill="none" xmlns="http://www.w3.org/2000/svg">
<path d="M8.78179 34.9238H7.90332V46.0808H8.78179V34.9238Z" fill="#ACA9A8"/>
<path d="M16.313 38.3259C15.8738 38.0736 15.3796 37.9521 14.8489 37.9521C14.3181 37.9521 13.7142 38.111 13.2567 38.4194C12.9547 38.6249 12.7076 38.8866 12.5337 39.1949V38.139H11.6553V46.091H12.5337V41.2974C12.5337 40.8208 12.6253 40.391 12.7991 40.0266C12.973 39.6621 13.2292 39.3631 13.5586 39.1576C13.8881 38.952 14.2815 38.8398 14.7208 38.8398C15.16 38.8398 15.5169 38.9333 15.8463 39.1202C16.1757 39.3071 16.432 39.5687 16.615 39.9144C16.798 40.2602 16.8895 40.6713 16.8895 41.1479V46.091H17.768V40.8956C17.768 40.3256 17.6399 39.821 17.3745 39.3725C17.1091 38.9239 16.7614 38.5782 16.3222 38.3353L16.313 38.3259Z" fill="#ACA9A8"/>
<path d="M22.9017 44.8474L20.3395 38.1289H19.3604L22.435 46.0808H23.3501L26.4705 38.1289H25.4639L22.9017 44.8474Z" fill="#ACA9A8"/>
<path d="M34.2392 39.0828C33.9189 38.7277 33.5437 38.4474 33.1136 38.2512C32.6744 38.0549 32.1894 37.9521 31.6587 37.9521C31.1279 37.9521 30.3227 38.1297 29.7553 38.4941C29.188 38.8492 28.7396 39.3444 28.4102 39.9705C28.0807 40.5966 27.916 41.2974 27.916 42.0916C27.916 42.8859 28.0899 43.596 28.4285 44.2221C28.767 44.8575 29.2337 45.3528 29.8194 45.7172C30.405 46.0816 31.0639 46.2685 31.7959 46.2685C32.528 46.2685 32.7568 46.1844 33.1777 46.0162C33.5986 45.848 33.9738 45.6144 34.3032 45.3154C34.6235 45.0257 34.8797 44.6893 35.0536 44.3156L34.3032 43.9138C34.0379 44.3716 33.6993 44.736 33.2784 45.0164C32.8574 45.2874 32.3633 45.4275 31.7959 45.4275C31.2286 45.4275 30.7344 45.2874 30.2678 44.9977C29.8102 44.7174 29.4442 44.3249 29.1788 43.8203C28.9501 43.3998 28.8311 42.9139 28.8128 42.3813H35.1726C35.1909 42.2598 35.2092 42.1477 35.2183 42.0356C35.2275 41.9234 35.2366 41.8207 35.2366 41.7179C35.2366 41.2226 35.1543 40.7461 34.9804 40.2882C34.8065 39.8303 34.5686 39.4285 34.2483 39.0735L34.2392 39.0828ZM29.1514 40.3816C29.4076 39.8864 29.7553 39.4939 30.1946 39.2136C30.6338 38.9333 31.1188 38.7838 31.6495 38.7838C32.1803 38.7838 32.647 38.9239 33.0679 39.1949C33.4797 39.4659 33.8 39.8397 34.0287 40.3069C34.2117 40.69 34.3032 41.1011 34.2941 41.559H28.8219C28.8677 41.1292 28.9775 40.7367 29.1514 40.3816Z" fill="#ACA9A8"/>
<path d="M41.1119 41.7827L39.8033 41.3903C39.602 41.3342 39.4007 41.2501 39.2085 41.1473C39.0164 41.0445 38.8608 40.9044 38.751 40.7455C38.6412 40.5867 38.5771 40.3717 38.5771 40.1195C38.5771 39.727 38.7235 39.4093 39.0164 39.157C39.3092 38.9047 39.6935 38.7739 40.1602 38.7739C40.6269 38.7739 41.0204 38.9047 41.3956 39.157C41.7707 39.4093 42.0544 39.7644 42.2649 40.2129L43.061 39.8391C42.8414 39.2598 42.4754 38.8019 41.9446 38.4655C41.4139 38.1291 40.8282 37.9609 40.1877 37.9609C39.5471 37.9609 39.3092 38.0544 38.9249 38.2413C38.5405 38.4281 38.2386 38.6898 38.0189 39.0168C37.7902 39.3532 37.6804 39.7457 37.6804 40.1942C37.6804 40.6427 37.8359 41.1286 38.1562 41.493C38.4765 41.8668 38.9706 42.1378 39.6478 42.334L40.8465 42.6798C41.0844 42.7358 41.3041 42.8293 41.5054 42.9414C41.7067 43.0535 41.8806 43.203 42.0087 43.3806C42.1368 43.5581 42.21 43.7824 42.21 44.0347C42.21 44.4552 42.0361 44.7916 41.6884 45.0438C41.3407 45.2961 40.9106 45.427 40.4073 45.427C39.904 45.427 39.4556 45.2868 39.0438 44.9971C38.632 44.7168 38.3026 44.3243 38.0647 43.8384L37.3052 44.1935C37.5614 44.8289 37.964 45.3335 38.5039 45.7073C39.053 46.0811 39.6844 46.2586 40.4073 46.2586C41.1302 46.2586 41.3864 46.1652 41.7982 45.9689C42.21 45.7727 42.5303 45.5111 42.7682 45.1653C43.0061 44.8289 43.1159 44.4458 43.1159 44.016C43.1159 43.5861 42.942 43.0255 42.5943 42.6424C42.2466 42.2499 41.7524 41.9696 41.121 41.7921L41.1119 41.7827Z" fill="#ACA9A8"/>
<path d="M48.6149 45.3147C48.2672 45.3147 47.9927 45.2493 47.8096 45.1185C47.6266 44.9877 47.4985 44.8195 47.4345 44.6139C47.3704 44.4083 47.343 44.1934 47.343 43.9692V38.9794H49.045V38.129H47.343V36.2695H46.4645V37.1199C46.4645 37.4282 46.3821 37.6712 46.2266 37.858C46.071 38.0356 45.8422 38.129 45.5494 38.129H44.9912V38.9794H46.4553V43.9692C46.4553 44.6887 46.6292 45.2306 46.9861 45.6137C47.343 45.9969 47.8371 46.1744 48.4776 46.1744C49.1182 46.1744 48.6607 46.1744 48.7979 46.1557C48.9352 46.137 49.0541 46.1183 49.164 46.0903V45.2773C49.0999 45.2867 49.0084 45.296 48.8894 45.3054C48.7705 45.3147 48.679 45.3241 48.6058 45.3241L48.6149 45.3147Z" fill="#ACA9A8"/>
<path d="M52.605 38.1289H51.7266V46.0808H52.605V38.1289Z" fill="#ACA9A8"/>
<path d="M52.605 34.9238H51.7266V36.5684H52.605V34.9238Z" fill="#ACA9A8"/>
<path d="M60.1358 38.3259C59.6965 38.0736 59.2024 37.9521 58.6716 37.9521C58.1409 37.9521 57.5369 38.111 57.0794 38.4194C56.7774 38.6249 56.5304 38.8866 56.3565 39.1949V38.139H55.478V46.091H56.3565V41.2974C56.3565 40.8208 56.448 40.391 56.6219 40.0266C56.7957 39.6621 57.052 39.3631 57.3814 39.1576C57.7108 38.952 58.1043 38.8398 58.5435 38.8398C58.9828 38.8398 59.3396 38.9333 59.6691 39.1202C59.9985 39.3071 60.2547 39.5687 60.4377 39.9144C60.6208 40.2602 60.7123 40.6713 60.7123 41.1479V46.091H61.5907V40.8956C61.5907 40.3256 61.4626 39.821 61.1972 39.3725C60.9319 38.9239 60.5841 38.5782 60.1449 38.3353L60.1358 38.3259Z" fill="#ACA9A8"/>
<path d="M70.7236 39.5687C70.4399 39.1202 70.0739 38.7558 69.6255 38.4661C69.0765 38.1203 68.4634 37.9521 67.7771 37.9521C67.0907 37.9521 66.3953 38.1297 65.8188 38.4941C65.2423 38.8492 64.7939 39.3351 64.4736 39.9425C64.1442 40.5498 63.9795 41.2226 63.9795 41.9608C63.9795 42.699 64.1442 43.3718 64.4736 43.9792C64.8031 44.5865 65.2514 45.0724 65.8279 45.4275C66.4044 45.7826 67.0541 45.9695 67.7771 45.9695C68.5 45.9695 69.0856 45.7919 69.6438 45.4369C70.1013 45.1472 70.4582 44.7641 70.7327 44.2969V45.7919C70.7327 46.3993 70.5955 46.9039 70.3301 47.315C70.0647 47.7168 69.717 48.0159 69.2961 48.2121C68.8751 48.4083 68.4176 48.5018 67.9326 48.5018C67.4476 48.5018 66.8071 48.3616 66.3678 48.0813C65.9286 47.8009 65.6083 47.4459 65.3887 47.016L64.5926 47.4459C64.7756 47.8103 65.0318 48.1467 65.3521 48.4364C65.6724 48.726 66.0567 48.9596 66.4959 49.1278C66.9352 49.296 67.411 49.3801 67.9326 49.3801C68.4542 49.3801 69.2778 49.2213 69.836 48.9129C70.385 48.6045 70.8243 48.1747 71.1354 47.6327C71.4465 47.0908 71.6021 46.4741 71.6021 45.7826V38.1297H70.7236V39.5687ZM70.3118 43.512C70.0556 43.9885 69.717 44.3623 69.2778 44.6426C68.8385 44.9229 68.3536 45.0631 67.8045 45.0631C67.2555 45.0631 66.7339 44.9229 66.3038 44.6426C65.8645 44.3623 65.526 43.9885 65.288 43.512C65.041 43.0354 64.922 42.5121 64.922 41.9515C64.922 41.3908 65.041 40.8675 65.288 40.391C65.5351 39.9238 65.8737 39.55 66.3129 39.2697C66.7522 38.9894 67.2555 38.8492 67.8045 38.8492C68.3536 38.8492 68.8477 38.9894 69.2778 39.2697C69.717 39.55 70.0556 39.9238 70.3118 40.391C70.568 40.8582 70.6961 41.3815 70.6961 41.9515C70.6961 42.5215 70.568 43.0447 70.3118 43.512Z" fill="#ACA9A8"/>
<path d="M84.2212 44.7166L82.2904 38.1289H81.4028L79.472 44.7166L77.3398 38.1289H76.3516L79.0236 46.0808H79.9204L81.842 39.5119L83.7728 46.0808H84.6696L87.3508 38.1289H86.3716L84.2212 44.7166Z" fill="#ACA9A8"/>
<path d="M90.1226 38.1289H89.2441V46.0808H90.1226V38.1289Z" fill="#ACA9A8"/>
<path d="M90.1226 34.9238H89.2441V36.5684H90.1226V34.9238Z" fill="#ACA9A8"/>
<path d="M95.9425 45.3147C95.5948 45.3147 95.3203 45.2493 95.1373 45.1185C94.9543 44.9877 94.8262 44.8195 94.7621 44.6139C94.698 44.4083 94.6706 44.1934 94.6706 43.9692V38.9794H96.3726V38.129H94.6706V36.2695H93.7921V37.1199C93.7921 37.4282 93.7098 37.6712 93.5542 37.858C93.3986 38.0356 93.1699 38.129 92.877 38.129H92.3188V38.9794H93.783V43.9692C93.783 44.6887 93.9568 45.2306 94.3137 45.6137C94.6614 45.9875 95.1647 46.1744 95.8053 46.1744C96.4458 46.1744 95.9883 46.1744 96.1256 46.1557C96.2628 46.137 96.3818 46.1183 96.4916 46.0903V45.2773C96.4275 45.2867 96.336 45.296 96.2171 45.3054C96.0981 45.3147 96.0066 45.3241 95.9334 45.3241L95.9425 45.3147Z" fill="#ACA9A8"/>
<path d="M103.721 38.3253C103.282 38.0731 102.788 37.9516 102.257 37.9516C101.726 37.9516 101.122 38.1104 100.665 38.4188C100.363 38.6244 100.116 38.886 99.9419 39.1944V34.7559H99.0635V46.0904H99.9419V41.2968C99.9419 40.8203 100.033 40.3904 100.216 40.026C100.399 39.6616 100.647 39.3626 100.976 39.157C101.305 38.9514 101.69 38.8393 102.129 38.8393C102.568 38.8393 102.907 38.9327 103.236 39.1196C103.566 39.3065 103.822 39.5681 104.014 39.9139C104.206 40.2596 104.298 40.6707 104.298 41.1473V46.0904H105.176V40.895C105.176 40.325 105.048 39.8204 104.783 39.3719C104.517 38.9234 104.17 38.5776 103.73 38.3347L103.721 38.3253Z" fill="#ACA9A8"/>
<path d="M115.342 38.2885C114.903 38.0643 114.409 37.9521 113.842 37.9521C113.274 37.9521 112.963 38.0362 112.57 38.1951C112.167 38.3539 111.819 38.5689 111.517 38.8398C111.215 39.1108 110.987 39.4005 110.84 39.7275L111.636 40.1574C111.838 39.7556 112.14 39.4379 112.533 39.1856C112.927 38.9333 113.366 38.8118 113.851 38.8118C114.336 38.8118 114.931 38.98 115.306 39.3071C115.681 39.6341 115.864 40.0639 115.864 40.5966V41.0451L112.945 41.5403C112.35 41.6431 111.865 41.8113 111.49 42.0543C111.115 42.2972 110.849 42.5869 110.685 42.9326C110.52 43.269 110.438 43.6334 110.438 44.0259C110.438 44.4183 110.547 44.8575 110.776 45.1939C111.005 45.5303 111.307 45.8013 111.682 45.9882C112.066 46.1751 112.496 46.2685 112.991 46.2685C113.485 46.2685 113.906 46.1844 114.299 46.0255C114.693 45.8667 115.04 45.6424 115.333 45.3808C115.562 45.1752 115.736 44.9603 115.864 44.7267V46.1003H116.742V40.6059C116.742 40.0826 116.623 39.6341 116.376 39.2323C116.129 38.8398 115.791 38.5315 115.361 38.3072L115.342 38.2885ZM114.51 45.0444C114.089 45.306 113.595 45.4369 113.027 45.4369C112.46 45.4369 112.13 45.306 111.819 45.0351C111.499 44.7641 111.343 44.4183 111.343 43.9885C111.343 43.5587 111.481 43.241 111.755 42.942C112.03 42.6429 112.496 42.4374 113.164 42.3252L115.846 41.8674V42.5588C115.846 43.0821 115.727 43.5587 115.498 43.9885C115.269 44.4183 114.94 44.7734 114.519 45.0351L114.51 45.0444Z" fill="#ACA9A8"/>
<path d="M124.255 38.3259C123.816 38.0736 123.322 37.9521 122.791 37.9521C122.261 37.9521 121.657 38.111 121.199 38.4194C120.897 38.6249 120.65 38.8866 120.476 39.1949V38.139H119.598V46.091H120.476V41.2974C120.476 40.8208 120.568 40.391 120.742 40.0266C120.915 39.6621 121.172 39.3631 121.501 39.1576C121.83 38.952 122.224 38.8398 122.663 38.8398C123.102 38.8398 123.459 38.9333 123.789 39.1202C124.118 39.3071 124.374 39.5687 124.557 39.9144C124.74 40.2602 124.832 40.6713 124.832 41.1479V46.091H125.71V40.8956C125.71 40.3256 125.582 39.821 125.317 39.3725C125.052 38.9239 124.704 38.5782 124.265 38.3353L124.255 38.3259Z" fill="#ACA9A8"/>
<path d="M137.295 39.0828C136.975 38.7277 136.599 38.4474 136.169 38.2512C135.73 38.0549 135.245 37.9521 134.714 37.9521C134.184 37.9521 133.378 38.1297 132.811 38.4941C132.244 38.8492 131.795 39.3444 131.466 39.9705C131.136 40.5966 130.972 41.2974 130.972 42.0916C130.972 42.8859 131.146 43.596 131.484 44.2221C131.823 44.8575 132.289 45.3528 132.875 45.7172C133.461 46.0816 134.12 46.2685 134.852 46.2685C135.584 46.2685 135.812 46.1844 136.233 46.0162C136.654 45.848 137.029 45.6144 137.359 45.3154C137.679 45.0257 137.926 44.6893 138.109 44.3156L137.359 43.9138C137.094 44.3716 136.755 44.736 136.334 45.0164C135.913 45.2874 135.419 45.4275 134.852 45.4275C134.284 45.4275 133.79 45.2874 133.323 44.9977C132.866 44.7174 132.5 44.3249 132.234 43.8203C132.006 43.3998 131.887 42.9139 131.868 42.3813H138.228C138.247 42.2598 138.265 42.1477 138.274 42.0356C138.283 41.9234 138.292 41.8207 138.292 41.7179C138.292 41.2226 138.21 40.7461 138.036 40.2882C137.862 39.8303 137.624 39.4285 137.304 39.0735L137.295 39.0828ZM132.216 40.3816C132.472 39.8864 132.82 39.4939 133.259 39.2136C133.699 38.9333 134.184 38.7838 134.714 38.7838C135.245 38.7838 135.712 38.9239 136.133 39.1949C136.544 39.4659 136.865 39.8397 137.094 40.3069C137.277 40.69 137.368 41.1011 137.359 41.559H131.887C131.933 41.1292 132.042 40.7367 132.216 40.3816Z" fill="#ACA9A8"/>
<path d="M147.352 39.5872C147.078 39.1294 146.702 38.7556 146.236 38.4659C145.677 38.1202 145.046 37.952 144.332 37.952C143.619 37.952 142.96 38.1295 142.374 38.494C141.788 38.849 141.331 39.3443 141.001 39.9797C140.672 40.6058 140.507 41.3159 140.507 42.1102C140.507 42.9044 140.672 43.6052 141.001 44.2407C141.331 44.8667 141.788 45.362 142.374 45.7264C142.96 46.0908 143.609 46.2777 144.332 46.2777C145.055 46.2777 145.687 46.1001 146.245 45.7451C146.712 45.4461 147.087 45.0536 147.352 44.577V46.1001H148.231V34.7656H147.352V39.6059V39.5872ZM146.94 43.7641C146.675 44.2593 146.318 44.6518 145.879 44.9321C145.43 45.2124 144.927 45.362 144.36 45.362C143.792 45.362 143.307 45.2218 142.868 44.9321C142.429 44.6518 142.081 44.2593 141.825 43.7641C141.569 43.2689 141.441 42.7175 141.441 42.0915C141.441 41.4654 141.569 40.9141 141.825 40.4282C142.081 39.9423 142.429 39.5499 142.868 39.2695C143.307 38.9892 143.811 38.8397 144.36 38.8397C144.909 38.8397 145.43 38.9799 145.879 39.2695C146.327 39.5499 146.675 39.9423 146.94 40.4282C147.206 40.9141 147.334 41.4748 147.334 42.0915C147.334 42.7082 147.206 43.2689 146.94 43.7641Z" fill="#ACA9A8"/>
<path d="M157.527 39.5687C157.244 39.1202 156.878 38.7558 156.429 38.4661C155.88 38.1203 155.267 37.9521 154.581 37.9521C153.894 37.9521 153.199 38.1297 152.623 38.4941C152.055 38.8492 151.598 39.3351 151.277 39.9425C150.948 40.5498 150.783 41.2226 150.783 41.9608C150.783 42.699 150.948 43.3718 151.277 43.9792C151.607 44.5865 152.055 45.0724 152.632 45.4275C153.208 45.7826 153.858 45.9695 154.581 45.9695C155.304 45.9695 155.889 45.7919 156.448 45.4369C156.905 45.1472 157.262 44.7641 157.536 44.2969V45.7919C157.536 46.3993 157.399 46.9039 157.134 47.315C156.868 47.7168 156.521 48.0159 156.1 48.2121C155.679 48.4083 155.221 48.5018 154.736 48.5018C154.251 48.5018 153.611 48.3616 153.172 48.0813C152.732 47.8009 152.412 47.4459 152.192 47.016L151.396 47.4459C151.579 47.8103 151.836 48.1467 152.156 48.4364C152.476 48.726 152.86 48.9596 153.3 49.1278C153.739 49.296 154.215 49.3801 154.736 49.3801C155.258 49.3801 156.081 49.2213 156.64 48.9129C157.189 48.6045 157.628 48.1747 157.939 47.6327C158.25 47.0908 158.406 46.4741 158.406 45.7826V38.1297H157.527V39.5687ZM157.116 43.512C156.859 43.9885 156.512 44.3623 156.081 44.6426C155.642 44.9229 155.157 45.0631 154.608 45.0631C154.059 45.0631 153.538 44.9229 153.107 44.6426C152.668 44.3623 152.33 43.9885 152.092 43.512C151.845 43.0354 151.726 42.5121 151.726 41.9515C151.726 41.3908 151.845 40.8675 152.092 40.391C152.339 39.9238 152.677 39.55 153.117 39.2697C153.556 38.9894 154.059 38.8492 154.608 38.8492C155.157 38.8492 155.651 38.9894 156.081 39.2697C156.512 39.55 156.859 39.9238 157.116 40.391C157.372 40.8582 157.5 41.3815 157.5 41.9515C157.5 42.5215 157.372 43.0447 157.116 43.512Z" fill="#ACA9A8"/>
<path d="M168.023 40.2975C167.85 39.8397 167.612 39.4379 167.291 39.0828C166.971 38.7277 166.596 38.4474 166.166 38.2512C165.727 38.0549 165.242 37.9521 164.711 37.9521C164.18 37.9521 163.375 38.1297 162.808 38.4941C162.24 38.8492 161.792 39.3444 161.462 39.9705C161.133 40.5966 160.968 41.2974 160.968 42.0916C160.968 42.8859 161.142 43.596 161.481 44.2221C161.819 44.8575 162.286 45.3528 162.872 45.7172C163.457 46.0816 164.116 46.2685 164.848 46.2685C165.58 46.2685 165.809 46.1844 166.23 46.0162C166.651 45.848 167.026 45.6144 167.355 45.3154C167.676 45.0257 167.923 44.6893 168.106 44.3156L167.355 43.9138C167.09 44.3716 166.752 44.736 166.331 45.0164C165.91 45.2874 165.416 45.4275 164.848 45.4275C164.281 45.4275 163.787 45.2874 163.32 44.9977C162.862 44.7174 162.496 44.3249 162.231 43.8203C162.002 43.3998 161.883 42.9139 161.865 42.3813H168.225C168.243 42.2598 168.261 42.1477 168.271 42.0356C168.28 41.9234 168.289 41.8207 168.289 41.7179C168.289 41.2226 168.207 40.7461 168.033 40.2882L168.023 40.2975ZM162.213 40.3816C162.469 39.8864 162.817 39.4939 163.256 39.2136C163.695 38.9333 164.18 38.7838 164.711 38.7838C165.242 38.7838 165.708 38.9239 166.129 39.1949C166.541 39.4659 166.861 39.8397 167.09 40.3069C167.273 40.69 167.365 41.1011 167.355 41.559H161.883C161.929 41.1292 162.039 40.7367 162.213 40.3816Z" fill="#ACA9A8"/>
<path d="M19.0768 14.5351C18.5003 13.881 17.7957 13.367 16.9539 12.9933C16.112 12.6195 15.1603 12.4326 14.0988 12.4326C13.0373 12.4326 11.5824 12.7597 10.53 13.4138C9.4777 14.0679 8.64498 14.9556 8.02273 16.0769C7.40048 17.1982 7.08936 18.497 7.08936 19.964C7.08936 21.4311 7.39133 22.6832 8.00443 23.8326C8.61753 24.9819 9.46855 25.8976 10.5575 26.5611C11.6464 27.2338 12.9001 27.5609 14.3184 27.5609C15.7368 27.5609 16.1669 27.402 16.9813 27.0937C17.7957 26.7853 18.4912 26.3555 19.0768 25.8042C19.6625 25.2622 20.0926 24.6455 20.3762 23.9727L17.9604 22.7673C17.6127 23.3934 17.1369 23.898 16.5329 24.2904C15.929 24.6829 15.1969 24.8791 14.3459 24.8791C13.4949 24.8791 12.7628 24.6735 12.104 24.2624C11.4451 23.8512 10.9418 23.2812 10.5849 22.5524C10.3379 22.0478 10.2006 21.4872 10.164 20.8611H20.724C20.7789 20.6462 20.8155 20.4126 20.8246 20.1603C20.8429 19.908 20.8521 19.665 20.8521 19.4408C20.8521 18.497 20.6965 17.6 20.3945 16.759C20.0926 15.918 19.6442 15.1705 19.0677 14.5257L19.0768 14.5351ZM10.5849 17.2916C10.9144 16.5534 11.3902 15.9834 12.0033 15.5816C12.6164 15.1798 13.3119 14.9836 14.0988 14.9836C14.8858 14.9836 15.5721 15.1798 16.1578 15.5816C16.7434 15.9834 17.1826 16.5254 17.4663 17.2169C17.631 17.6 17.7134 18.0205 17.7317 18.4596H10.2464C10.3104 18.0391 10.4202 17.6467 10.5849 17.2916Z" fill="#ACA9A8"/>
<path d="M34.1298 14.4416C33.6814 13.909 33.1415 13.4698 32.501 13.1334C31.6225 12.6662 30.6251 12.4326 29.4812 12.4326C28.3374 12.4326 26.9282 12.7596 25.8575 13.4231C24.7869 14.0865 23.945 14.9836 23.3136 16.1236C22.6822 17.2636 22.3711 18.5531 22.3711 19.9827C22.3711 21.4124 22.6822 22.6925 23.3045 23.8419C23.9267 24.9819 24.7686 25.8883 25.8484 26.561C26.9282 27.2338 28.1452 27.5609 29.5087 27.5609C30.8721 27.5609 31.5859 27.3273 32.501 26.8601C33.2147 26.4956 33.8004 26.0004 34.2579 25.3743V27.2338H37.0672V6.97559H34.1298V14.4416ZM33.5716 22.4402C33.1964 23.1598 32.684 23.7297 32.0251 24.1409C31.3663 24.552 30.6342 24.7576 29.8107 24.7576C28.9871 24.7576 28.2276 24.552 27.5687 24.1409C26.9099 23.7297 26.3974 23.1598 26.0314 22.4402C25.6654 21.7207 25.4823 20.8985 25.4823 19.9921C25.4823 19.0857 25.6654 18.2727 26.0314 17.5532C26.3974 16.8431 26.9099 16.2731 27.5779 15.8619C28.2459 15.4508 28.9871 15.2452 29.8107 15.2452C30.6342 15.2452 31.3754 15.4508 32.0251 15.8619C32.684 16.2731 33.1964 16.8337 33.5716 17.5532C33.9468 18.2634 34.139 19.0763 34.139 19.9921C34.139 20.9078 33.9468 21.7207 33.5716 22.4402Z" fill="#ACA9A8"/>
<path d="M50.6559 14.6192C50.1801 14.0024 49.6219 13.5072 48.9631 13.1428C48.112 12.6662 47.1512 12.4326 46.0623 12.4326C44.9733 12.4326 43.555 12.741 42.5209 13.367C41.4869 13.9931 40.6725 14.8434 40.0685 15.9087C39.4646 16.9832 39.1626 18.2073 39.1626 19.5809C39.1626 20.9545 39.4646 22.1599 40.0685 23.2532C40.6725 24.3465 41.496 25.1968 42.5484 25.8229C43.6007 26.4489 44.7812 26.7573 46.0897 26.7573C47.3983 26.7573 48.1486 26.5143 49.018 26.0378C49.6128 25.7107 50.1069 25.2716 50.5278 24.7389V26.5797C50.5278 27.3647 50.354 28.0374 50.0062 28.5981C49.6585 29.1587 49.1827 29.5886 48.5879 29.8876C47.9931 30.1866 47.3159 30.3268 46.5656 30.3268C45.8152 30.3268 44.7995 30.1025 44.1406 29.654C43.4818 29.2055 43.0334 28.6448 42.7863 27.9627L40.0594 29.112C40.3705 29.9156 40.8463 30.6164 41.4777 31.2145C42.1091 31.8125 42.8595 32.2797 43.7288 32.6161C44.6073 32.9525 45.559 33.1207 46.5839 33.1207C47.6087 33.1207 49.1186 32.831 50.1527 32.261C51.1867 31.691 51.992 30.9061 52.5776 29.9156C53.1633 28.9251 53.4561 27.8038 53.4561 26.5517V12.7316H50.6468V14.5911L50.6559 14.6192ZM49.9879 21.8235C49.6311 22.4776 49.1461 22.9916 48.533 23.3747C47.9199 23.7578 47.2244 23.954 46.4374 23.954C45.6505 23.954 44.9184 23.7578 44.287 23.3747C43.6556 22.9916 43.1615 22.4683 42.8046 21.8049C42.4477 21.1414 42.2647 20.4126 42.2647 19.609C42.2647 18.8054 42.4477 18.0205 42.8046 17.3757C43.1615 16.7216 43.6556 16.2077 44.287 15.8246C44.9184 15.4415 45.6322 15.2452 46.4374 15.2452C47.2427 15.2452 47.9016 15.4415 48.5055 15.8246C49.1186 16.2077 49.6036 16.731 49.9696 17.3944C50.3357 18.0578 50.5187 18.796 50.5187 19.6183C50.5187 20.4406 50.3357 21.1788 49.9788 21.8235H49.9879Z" fill="#ACA9A8"/>
<path d="M68.8754 16.7771C68.5734 15.9361 68.125 15.1886 67.5485 14.5439C66.972 13.8898 66.2674 13.3758 65.4255 13.0021C64.5837 12.6283 63.632 12.4414 62.5705 12.4414C61.509 12.4414 60.0541 12.7685 59.0017 13.4225C57.9494 14.0766 57.1167 14.9643 56.4944 16.0856C55.8722 17.207 55.561 18.5058 55.561 19.9728C55.561 21.4399 55.863 22.692 56.4761 23.8413C57.0892 24.9907 57.9402 25.9064 59.0292 26.5698C60.1181 27.2426 61.3718 27.5697 62.7901 27.5697C64.2085 27.5697 64.6386 27.4108 65.453 27.1025C66.2674 26.7941 66.9629 26.3643 67.5485 25.813C68.1342 25.271 68.5643 24.6543 68.8479 23.9815L66.4321 22.7761C66.0844 23.4022 65.6086 23.9067 65.0046 24.2992C64.4007 24.6917 63.6686 24.8879 62.8176 24.8879C61.9666 24.8879 61.2345 24.6823 60.5756 24.2712C59.9168 23.86 59.4135 23.29 59.0566 22.5612C58.8096 22.0566 58.6723 21.4959 58.6357 20.8699H69.1957C69.2506 20.655 69.2872 20.4214 69.2963 20.1691C69.3146 19.9168 69.3238 19.6738 69.3238 19.4496C69.3238 18.5058 69.1682 17.6088 68.8662 16.7678L68.8754 16.7771ZM59.0475 17.291C59.3769 16.5529 59.8527 15.9829 60.4658 15.5811C61.0789 15.1793 61.7744 14.983 62.5614 14.983C63.3483 14.983 64.0346 15.1793 64.6203 15.5811C65.2059 15.9829 65.6452 16.5248 65.9288 17.2163C66.0935 17.5994 66.1759 18.0199 66.1942 18.4591H58.7089C58.773 18.0386 58.8828 17.6461 59.0475 17.291Z" fill="#ACA9A8"/>
<path d="M84.6966 22.739L88.2746 12.75H85.7123L82.1436 22.739H84.6966Z" fill="#594B3D"/>
<path d="M79.5173 24.8788L83.8547 12.75H81.2925L76.9551 24.8788H79.5173Z" fill="#594B3D"/>
<path d="M71.7759 27.0279L76.8728 12.75H79.4351L74.3381 27.0279H71.7759Z" fill="#594B3D"/>
<path d="M71.7759 27.0279L76.8728 12.75H79.4351L74.3381 27.0279H71.7759Z" fill="#594B3D"/>
<path d="M95.0184 15.5719C95.7047 15.1233 96.4825 14.8991 97.3427 14.8991C98.2028 14.8991 99.0173 15.1327 99.7036 15.6092C100.39 16.0858 100.893 16.6932 101.223 17.4407L103.4 16.3661C103.117 15.5999 102.678 14.9271 102.064 14.3571C101.451 13.7871 100.747 13.3293 99.9415 12.9929C99.1362 12.6565 98.276 12.4883 97.3427 12.4883C95.9609 12.4883 94.7347 12.8153 93.6549 13.4788C92.5751 14.1422 91.7333 15.0299 91.1202 16.1606C90.5071 17.2819 90.2051 18.5714 90.2051 20.0197C90.2051 21.4681 90.5071 22.7295 91.1202 23.8789C91.7333 25.0189 92.5751 25.9253 93.6549 26.5793C94.7256 27.2428 95.9609 27.5698 97.3427 27.5698C98.7244 27.5698 99.1362 27.4016 99.9415 27.0652C100.747 26.7289 101.451 26.271 102.064 25.6823C102.678 25.103 103.126 24.4395 103.4 23.6826L101.223 22.5613C100.893 23.3462 100.381 23.9723 99.7036 24.4489C99.0173 24.9254 98.2303 25.159 97.3427 25.159C96.455 25.159 95.7138 24.9348 95.0184 24.4862C94.3321 24.0377 93.783 23.4303 93.3804 22.6548C92.9778 21.8792 92.7764 21.0102 92.7764 20.0477C92.7764 19.0853 92.9778 18.1602 93.3804 17.394C93.783 16.6278 94.3321 16.0204 95.0184 15.5719Z" fill="#ACA9A8"/>
<path d="M114.308 13.1143C113.485 12.6939 112.533 12.4883 111.453 12.4883C110.374 12.4883 109.806 12.6378 109.038 12.9461C108.269 13.2545 107.592 13.6657 107.015 14.1889C106.439 14.7122 106.018 15.3102 105.752 15.9737L107.875 17.095C108.168 16.3942 108.635 15.8429 109.248 15.4224C109.87 15.0019 110.584 14.7963 111.389 14.7963C112.195 14.7963 113.064 15.0392 113.631 15.5345C114.199 16.0297 114.482 16.6651 114.482 17.4501V18.1135L109.66 18.9264C108.607 19.104 107.738 19.4123 107.052 19.8328C106.356 20.2627 105.853 20.7859 105.533 21.4027C105.213 22.0194 105.048 22.7108 105.048 23.4771C105.048 24.2433 105.249 24.9908 105.652 25.6075C106.054 26.2243 106.613 26.7102 107.317 27.0559C108.022 27.4016 108.845 27.5792 109.77 27.5792C110.694 27.5792 111.316 27.4577 112.002 27.2054C112.689 26.9531 113.274 26.6167 113.787 26.1869C114.08 25.9439 114.327 25.673 114.546 25.3833V27.2615H116.935V17.4594C116.935 16.4783 116.706 15.6186 116.239 14.8711C115.773 14.1329 115.132 13.5535 114.308 13.133V13.1143ZM113.924 23.3089C113.549 23.9723 113.036 24.4956 112.378 24.8787C111.719 25.2618 110.95 25.458 110.053 25.458C109.157 25.458 108.772 25.2618 108.306 24.8694C107.839 24.4769 107.61 23.9817 107.61 23.393C107.61 22.8043 107.811 22.2436 108.223 21.8138C108.635 21.384 109.294 21.0943 110.2 20.9261L114.473 20.1973V21.113C114.473 21.9166 114.281 22.6454 113.906 23.3089H113.924Z" fill="#ACA9A8"/>
<path d="M130.844 13.4788C129.782 12.8153 128.593 12.4883 127.266 12.4883C125.939 12.4883 125.052 12.7406 124.146 13.2545C123.404 13.6657 122.791 14.1983 122.306 14.843V12.806H119.918V32.597H122.361V25.2151C122.828 25.8598 123.414 26.3831 124.127 26.7849C125.061 27.2988 126.095 27.5605 127.239 27.5605C128.382 27.5605 129.782 27.2334 130.844 26.57C131.905 25.9066 132.738 25.0095 133.351 23.8695C133.964 22.7295 134.266 21.4494 134.266 20.0384C134.266 18.6274 133.964 17.3005 133.351 16.1699C132.738 15.0392 131.905 14.1422 130.844 13.4788ZM131.082 22.6548C130.688 23.4303 130.139 24.0471 129.444 24.4862C128.748 24.9348 127.952 25.159 127.056 25.159C126.159 25.159 125.363 24.9348 124.658 24.4862C123.953 24.0377 123.386 23.4303 122.983 22.6548C122.572 21.8792 122.37 21.0102 122.37 20.0477C122.37 19.0853 122.572 18.1882 122.983 17.4127C123.395 16.6371 123.953 16.0204 124.658 15.5812C125.363 15.1327 126.168 14.9084 127.056 14.9084C127.943 14.9084 128.739 15.1327 129.444 15.5906C130.139 16.0484 130.688 16.6558 131.082 17.4127C131.475 18.1696 131.668 19.0479 131.668 20.0477C131.668 21.0476 131.466 21.8792 131.082 22.6548Z" fill="#ACA9A8"/>
<path d="M139.126 12.8066H136.683V27.2434H139.126V12.8066Z" fill="#ACA9A8"/>
<path d="M139.126 7.29297H136.683V10.5074H139.126V7.29297Z" fill="#ACA9A8"/>
<path d="M148.349 25.1309C147.773 25.1309 147.306 25.0281 146.958 24.8225C146.611 24.617 146.364 24.3366 146.208 23.9816C146.062 23.6265 145.988 23.206 145.988 22.7201V15.198H149.164V12.8152H145.988V9.49805H143.545V10.6754C143.545 11.3202 143.362 11.8341 142.996 12.2266C142.63 12.619 142.127 12.8152 141.504 12.8152H140.983V15.198H143.554V22.8042C143.554 24.2712 143.929 25.4019 144.671 26.2055C145.412 27.0091 146.473 27.4109 147.855 27.4109C149.237 27.4109 148.285 27.4015 148.56 27.3735C148.843 27.3455 149.09 27.3081 149.319 27.252V25.0562C149.164 25.0748 148.99 25.0935 148.807 25.1122C148.624 25.1309 148.468 25.1402 148.349 25.1402V25.1309Z" fill="#ACA9A8"/>
<path d="M160.209 13.1143C159.385 12.6939 158.434 12.4883 157.354 12.4883C156.274 12.4883 155.707 12.6378 154.938 12.9461C154.169 13.2545 153.492 13.6657 152.916 14.1889C152.339 14.7122 151.918 15.3102 151.653 15.9737L153.776 17.095C154.069 16.3942 154.535 15.8429 155.148 15.4224C155.771 15.0019 156.484 14.7963 157.29 14.7963C158.095 14.7963 158.964 15.0392 159.532 15.5345C160.099 16.0297 160.383 16.6651 160.383 17.4501V18.1135L155.56 18.9264C154.508 19.104 153.639 19.4123 152.952 19.8328C152.257 20.2627 151.754 20.7859 151.433 21.4027C151.113 22.0194 150.948 22.7108 150.948 23.4771C150.948 24.2433 151.15 24.9908 151.552 25.6075C151.955 26.2243 152.513 26.7102 153.218 27.0559C153.922 27.4016 154.746 27.5792 155.67 27.5792C156.594 27.5792 157.217 27.4577 157.903 27.2054C158.589 26.9531 159.175 26.6167 159.687 26.1869C159.98 25.9439 160.227 25.673 160.447 25.3833V27.2615H162.835V17.4594C162.835 16.4783 162.606 15.6186 162.14 14.8711C161.673 14.1329 161.032 13.5535 160.209 13.133V13.1143ZM159.824 23.3089C159.449 23.9723 158.937 24.4956 158.278 24.8787C157.619 25.2618 156.85 25.458 155.954 25.458C155.057 25.458 154.673 25.2618 154.206 24.8694C153.739 24.4769 153.51 23.9817 153.51 23.393C153.51 22.8043 153.712 22.2436 154.124 21.8138C154.535 21.384 155.194 21.0943 156.1 20.9261L160.374 20.1973V21.113C160.374 21.9166 160.181 22.6454 159.806 23.3089H159.824Z" fill="#ACA9A8"/>
<path d="M168.262 6.97559H165.818V27.2525H168.262V6.97559Z" fill="#ACA9A8"/>
</svg>
