<svg width="144" height="55" viewBox="0 0 144 55" fill="none" xmlns="http://www.w3.org/2000/svg">
<path d="M61.1169 26.8828C60.0889 26.8828 59.3179 27.6538 59.3179 28.6819C59.3179 30.1211 60.9113 31.0977 62.5048 30.0183C63.4814 28.4249 62.5562 26.8828 61.1169 26.8828ZM61.1683 30.2753C60.2431 30.3267 59.5235 29.6071 59.5235 28.6819C59.5235 27.4996 60.7057 26.6772 61.9908 27.294C63.43 28.5277 62.4534 30.2753 61.1683 30.2753Z" fill="Url(#paint0_linear_1623_562)"/>
<path d="M61.9904 28.3225C61.9904 27.9113 61.682 27.6543 61.168 27.6543H60.397V29.7104H60.654V29.0421H61.168C61.2194 29.0421 61.2194 29.0421 61.2708 29.0421L61.7334 29.7104H61.9904L61.5278 28.9907C61.8362 28.8879 61.9904 28.6823 61.9904 28.3225ZM61.168 28.8365H60.654V27.9113H61.168C61.5278 27.9113 61.7334 28.0655 61.7334 28.3739C61.7334 28.6309 61.5278 28.8365 61.168 28.8365Z" fill="Url(#paint1_linear_1623_562)"/>
<path d="M0 12.3364V42.6634C0 49.4484 5.49998 54.9998 12.285 54.9998H14.9579C21.7429 54.9998 27.2429 49.4998 27.2429 42.6634V12.3364C27.2429 5.55138 21.7429 0 14.9065 0H12.3364C5.49998 0 0 5.49998 0 12.3364Z" fill="Url(#paint2_linear_1623_562)"/>
<path d="M54.2802 42.6639V37.7807C54.2802 30.9957 48.7802 25.4443 41.9438 25.4443C35.1588 25.4443 29.6074 30.9443 29.6074 37.7807V42.6639C29.6074 49.4489 35.1074 55.0003 41.8924 55.0003C48.7802 54.9489 54.2802 49.4489 54.2802 42.6639Z" fill="Url(#paint3_linear_1623_562)"/>
<path d="M78.0788 34.1309C78.5414 34.1309 78.9012 34.3879 78.9012 34.7477C78.9012 38.3972 78.9012 38.9112 78.9012 38.9112C79.3124 38.5 80.4432 38.1402 81.7797 38.1402C84.7096 38.1402 86.5086 39.3738 86.5086 41.7383V45.2336C86.5086 47.2383 84.6068 48.7289 81.6255 48.7289C80.4946 48.7289 79.3638 48.4205 78.8498 47.8037V48.0093C78.8498 48.3691 78.49 48.6261 78.0273 48.6261H76.9479C76.4853 48.6261 76.1255 48.3691 76.1255 48.0093V34.7477C76.1255 34.3879 76.4853 34.1309 76.9479 34.1309H78.0788ZM78.9012 41.5841V45.3364C78.9012 46.3131 79.9292 47.0327 81.5227 47.0327C82.8077 47.0327 83.7329 46.5187 83.7329 45.3364V41.5841C83.7329 40.5561 83.0647 39.8364 81.4199 39.8364C79.5694 39.8878 78.9012 40.7617 78.9012 41.5841Z" fill="#83858B"/>
<path d="M94.3215 48.7808C91.2374 48.7808 89.1299 47.4443 89.1299 45.0798V41.9957C89.1299 39.2715 91.2374 38.1406 94.3729 38.1406C97.457 38.1406 99.6158 39.2201 99.6158 41.9957V45.0798C99.6158 47.4443 97.5598 48.7808 94.4243 48.7808H94.3215ZM91.957 41.9443V45.0284C91.957 46.0051 92.3682 46.9817 94.3215 46.9817C96.3261 46.9817 96.7373 46.0051 96.7373 45.0284V41.9443C96.7373 40.8135 96.2747 39.8369 94.3215 39.8369C92.4196 39.8883 91.957 40.8135 91.957 41.9443Z" fill="#83858B"/>
<path d="M104.088 34.1309C104.55 34.1309 104.961 34.3879 104.961 34.7477V45.4906C104.961 46.2616 105.116 47.0841 107.12 47.0841H107.737C108.251 47.0841 108.662 47.3411 108.662 47.6495V48.2663C108.662 48.5747 108.302 48.8317 107.737 48.8317H107.12C103.779 48.8317 102.134 47.5467 102.134 45.542V34.7477C102.134 34.3879 102.494 34.1309 102.957 34.1309H104.088Z" fill="#83858B"/>
<path d="M117.402 38.9112V34.7477C117.402 34.1309 118.275 34.1309 118.275 34.1309H119.406C119.869 34.1309 120.229 34.3879 120.229 34.7477V48.0093C120.229 48.3691 119.869 48.6261 119.406 48.6261H118.327C117.864 48.6261 117.504 48.3691 117.504 48.0093V47.8037C116.682 48.4719 115.808 48.7289 114.575 48.7289C111.645 48.7289 109.897 47.5467 109.897 45.2336V41.7383C109.897 39.7336 111.233 38.0888 114.626 38.0888C115.397 38.1402 116.785 38.3972 117.402 38.9112ZM112.673 41.6355V45.4392C112.673 46.7243 113.598 47.0327 114.832 47.0327C116.374 47.0327 117.453 46.5701 117.453 45.4392V41.6355C117.453 40.2477 116.065 39.8878 114.986 39.8878C113.392 39.8878 112.673 40.4533 112.673 41.6355Z" fill="#83858B"/>
<path d="M133.387 41.1219V42.5098C133.387 43.0238 132.976 43.5378 131.896 43.6406L125.78 44.4116V45.4397C125.831 46.3135 126.705 47.0331 128.195 47.0331C91.365 47.0331 130.611 46.2621 130.611 45.4397C130.611 44.8228 131.537 44.8228 131.537 44.8228H132.513C133.079 44.8228 133.49 45.0284 133.49 45.4397C133.49 47.2387 131.485 48.7294 128.247 48.7294C125.163 48.7294 123.004 47.2901 123.004 45.3883V41.7387C123.004 39.6827 124.906 38.1406 128.452 38.1406C131.228 38.1406 133.387 39.2715 133.387 41.1219ZM125.78 41.5845V42.6126L130.56 41.9957V41.1219C130.56 40.2995 129.583 39.8883 128.247 39.8883C126.448 39.8883 125.78 40.6593 125.78 41.5845Z" fill="#83858B"/>
<path d="M143.05 38.7057V39.3225C143.05 39.6309 142.69 39.8879 142.125 39.8879C139.349 39.8879 138.835 40.8132 138.835 41.6356V48.0608C138.835 48.4206 138.475 48.6776 138.013 48.6776H136.882C136.419 48.6776 136.06 48.4206 136.06 48.0608V38.8599C136.06 38.5001 136.419 38.2431 136.882 38.2431H138.013C138.475 38.2431 138.835 38.5001 138.835 38.8599V38.9627C139.812 38.3459 140.275 38.0889 142.125 38.0889C142.69 38.1403 143.05 38.3973 143.05 38.7057Z" fill="#83858B"/>
<defs>
<linearGradient id="paint0_linear_1623_562" x1="61.1515" y1="27.4036" x2="61.1012" y2="30.4776" gradientUnits="UserSpaceOnUse">
<stop stop-color="#B9B7B5"/>
<stop offset="1" stop-color="#201E1E"/>
</linearGradient>
<linearGradient id="paint1_linear_1623_562" x1="61.2107" y1="27.9521" x2="61.1737" y2="29.7099" gradientUnits="UserSpaceOnUse">
<stop stop-color="#B9B7B5"/>
<stop offset="1" stop-color="#201E1E"/>
</linearGradient>
<linearGradient id="paint2_linear_1623_562" x1="13.9124" y1="7.96726" x2="12.3623" y2="54.9582" gradientUnits="UserSpaceOnUse">
<stop stop-color="#B9B7B5"/>
<stop offset="1" stop-color="#201E1E"/>
</linearGradient>
<linearGradient id="paint3_linear_1623_562" x1="42.2073" y1="29.7258" x2="41.7127" y2="54.9958" gradientUnits="UserSpaceOnUse">
<stop stop-color="#B9B7B5"/>
<stop offset="1" stop-color="#201E1E"/>
</linearGradient>
</defs>
</svg>
